<?xml version="1.0" encoding="UTF-8"?>
<svg version="1.1" xmlns="http://www.w3.org/2000/svg" width="443" height="416">
<path d="M0 0 C31.00974746 23.69797543 48.77957584 60.20316849 57.23046875 97.51171875 C57.35220914 91.01651093 56.63155468 85.00194417 55.5703125 78.5859375 C55.23046875 75.51171875 55.23046875 75.51171875 56.23046875 72.51171875 C63.84180001 72.03601055 69.38374762 73.18579435 75.91796875 77.13671875 C85.70325496 87.18647216 87.70534504 102.42812583 89.23046875 115.76171875 C89.39619879 117.11457579 89.56322474 118.46727461 89.73144531 119.81982422 C90.50096783 126.06336296 91.21613524 132.31168211 91.87776184 138.56755066 C94.31902507 161.57626775 98.50987357 184.08030983 104.23046875 206.51171875 C116.64369521 200.55337005 123.77787698 194.41681484 129.23046875 181.51171875 C131.79239775 173.82593176 130.64276257 165.62521635 127.625 158.24609375 C123.49621125 150.15042953 117.52818206 141.48944189 109.07421875 137.4921875 C107.23046875 136.51171875 107.23046875 136.51171875 106.48046875 134.38671875 C106.39796875 133.76796875 106.31546875 133.14921875 106.23046875 132.51171875 C111.09749367 130.85164824 114.54016224 132.47025248 118.98046875 134.51171875 C119.69130615 134.83277588 120.40214355 135.15383301 121.13452148 135.48461914 C134.97444958 141.95357309 144.3751192 152.55110089 149.98046875 166.69921875 C154.51889935 179.75041185 152.32900554 193.47040881 146.48046875 205.76171875 C133.05584915 230.77286823 106.68544857 244.04279983 80.60009766 252.20605469 C71.25560399 254.96747963 61.91882619 256.5764898 52.23046875 257.51171875 C51.00529541 257.63135986 51.00529541 257.63135986 49.75537109 257.75341797 C26.47569822 259.84643597 -2.2391581 258.73096211 -21.32421875 243.46875 C-22.06929687 242.82292969 -22.814375 242.17710937 -23.58203125 241.51171875 C-26.4231979 239.20876946 -28.0709737 238.02128927 -31.76953125 238.32421875 C-33.44538011 238.67917285 -35.11102999 239.08295848 -36.76953125 239.51171875 C-38.00703125 239.76695312 -39.24453125 240.0221875 -40.51953125 240.28515625 C-50.93224782 242.47942556 -60.81845635 245.77539526 -70.76953125 249.51171875 C-58.68952369 268.49075286 -35.99237792 277.36278055 -14.9765625 282.41015625 C27.02674029 291.72991571 74.33674418 286.5124492 112.3828125 265.89453125 C115.05969778 264.59464457 117.3001734 263.93264515 120.23046875 263.51171875 C121.64684589 266.84053138 123.03836042 270.17895882 124.41259766 273.52539062 C124.98419217 274.91359747 125.5597082 276.30019322 126.13818359 277.68554688 C132.17700378 292.20858276 135.71949327 304.16690132 130.07421875 319.69140625 C125.12721648 330.4923612 118.09026335 337.09992141 107.515625 342.3203125 C98.67270979 345.52731504 89.516286 345.97835054 80.1953125 346.4765625 C78.84205962 346.55436493 77.48884978 346.63291924 76.13568115 346.71217346 C73.28475935 346.87826235 70.43366566 347.04070962 67.58236694 347.20019531 C60.18779177 347.61508631 52.79505228 348.06107386 45.40234375 348.5078125 C44.31984376 348.57302408 44.31984376 348.57302408 43.21547508 348.63955307 C27.51206671 349.58831892 11.87480322 350.84177228 -3.76953125 352.51171875 C-5.21189076 352.6628203 -6.65427466 352.81368908 -8.09667969 352.96435547 C-32.15917008 355.48862063 -56.19915309 358.28689898 -80.08520508 362.16577148 C-104.07266751 366.03243363 -131.55272908 369.30793248 -152.63671875 354.26953125 C-160.40454693 347.86747506 -165.62892288 340.39896969 -167.76953125 330.51171875 C-167.85873364 329.04240397 -167.90013966 327.56967464 -167.90234375 326.09765625 C-167.90443848 325.25879883 -167.9065332 324.41994141 -167.90869141 323.55566406 C-167.90168213 322.23453613 -167.90168213 322.23453613 -167.89453125 320.88671875 C-167.89114746 319.9853418 -167.88776367 319.08396484 -167.88427734 318.15527344 C-167.82159603 310.09999541 -167.44121934 302.46650898 -165.3125 294.671875 C-164.22290351 290.3370055 -163.53024792 285.91416418 -162.76953125 281.51171875 C-172.69706983 284.19703656 -182.42417824 286.94637873 -191.64453125 291.57421875 C-192.27875 291.89003906 -192.91296875 292.20585937 -193.56640625 292.53125 C-200.07626903 295.93984768 -206.38833046 300.26647976 -208.76953125 307.51171875 C-209.29408872 311.79303336 -208.72876169 315.0869418 -206.3046875 318.6875 C-204.54199435 320.7356183 -202.71435067 322.63650339 -200.76953125 324.51171875 C-199.08158008 326.16197374 -197.41403597 327.81738055 -195.76953125 329.51171875 C-195.76953125 330.17171875 -195.76953125 330.83171875 -195.76953125 331.51171875 C-207.84327881 330.90803137 -216.80787255 326.46330087 -225.48046875 318.078125 C-231.69267832 311.11324157 -233.11809425 303.84191297 -233.0625 294.7578125 C-232.46890231 288.18075004 -229.75935459 282.32975336 -226.76953125 276.51171875 C-226.10953125 276.51171875 -225.44953125 276.51171875 -224.76953125 276.51171875 C-224.51429688 275.93808594 -224.2590625 275.36445313 -223.99609375 274.7734375 C-218.50885827 264.65525488 -207.60938026 259.49999345 -197.76953125 254.51171875 C-196.37927734 253.80402344 -196.37927734 253.80402344 -194.9609375 253.08203125 C-192.26241545 251.79381323 -189.5401604 250.63706427 -186.76953125 249.51171875 C-186.15432617 249.25712891 -185.53912109 249.00253906 -184.90527344 248.74023438 C-151.4521095 235.06571572 -115.1689569 230.58985915 -79.46339417 227.10728455 C-76.35537633 226.79979515 -73.27140519 226.4391396 -70.18041992 225.98876953 C-66.92247575 225.53310974 -63.72087457 225.26713021 -60.4375 225.08203125 C-59.23996094 225.01064941 -58.04242188 224.93926758 -56.80859375 224.86572266 C-55.53757813 224.79015137 -54.2665625 224.71458008 -52.95703125 224.63671875 C7.6905272 221.83995107 7.6905272 221.83995107 59.10546875 193.69921875 C66.61990751 184.57712363 69.24666978 174.09068545 68.23046875 162.51171875 C64.93368912 149.53182637 55.74102636 139.1629448 44.765625 131.875 C42.62103844 130.65423534 40.46711112 129.5526177 38.23046875 128.51171875 C36.62171875 127.73828125 36.62171875 127.73828125 34.98046875 126.94921875 C33.7375229 126.45204041 32.48629255 125.97540754 31.23046875 125.51171875 C30.35390625 125.18171875 29.47734375 124.85171875 28.57421875 124.51171875 C4.50391073 116.24514832 -21.28231327 118.98685203 -44.08203125 129.76171875 C-64.81871588 140.73716263 -77.96866849 156.77311994 -84.95703125 179.07421875 C-86.47747743 184.69604694 -87.29965384 190.18744602 -87.8828125 195.9765625 C-87.97002563 196.80152222 -88.05723877 197.62648193 -88.14709473 198.47644043 C-88.35907782 200.48773023 -88.56494487 202.4996631 -88.76953125 204.51171875 C-89.66583504 204.58022537 -89.66583504 204.58022537 -90.58024597 204.65011597 C-96.85987618 205.13107025 -103.13893629 205.61901962 -109.41772461 206.11083984 C-111.75385143 206.2929343 -114.09011305 206.47330849 -116.42651367 206.65185547 C-133.151626 207.85651572 -133.151626 207.85651572 -149.7355957 210.24658203 C-150.40679443 210.33407715 -151.07799316 210.42157227 -151.76953125 210.51171875 C-152.09953125 210.18171875 -152.42953125 209.85171875 -152.76953125 209.51171875 C-152.71387997 207.2685291 -152.58177486 205.02723785 -152.421875 202.7890625 C-152.34851173 201.72582008 -152.34851173 201.72582008 -152.27366638 200.64109802 C-152.16619114 199.08649436 -152.05653131 197.53204062 -151.94500732 195.97772217 C-151.70642835 192.62491992 -151.48470519 189.27107092 -151.26211548 185.91717529 C-151.08186169 183.20428233 -150.89964161 180.49152811 -150.71679688 177.77880859 C-150.62265503 176.38187775 -150.62265503 176.38187775 -150.52661133 174.95672607 C-150.39502237 173.00736857 -150.26317951 171.05802818 -150.13110352 169.10870361 C-149.44986925 159.04373305 -148.77504162 148.979887 -148.234375 138.90625 C-145.55995613 89.33392484 -145.55995613 89.33392484 -135.54296875 78.91015625 C-127.87722683 72.86536417 -119.13604664 72.31756817 -109.76953125 72.32421875 C-108.37408081 72.32325195 -108.37408081 72.32325195 -106.95043945 72.32226562 C-99.72107244 72.37738947 -92.86099487 73.03816787 -85.76953125 74.51171875 C-84.03018534 58.77384392 -84.03018534 58.77384392 -85.2890625 43.20703125 C-87.42788571 31.2087547 -85.53496169 15.69283343 -79.41796875 5.19140625 C-77.97691986 3.16469043 -76.44405701 1.34842618 -74.76953125 -0.48828125 C-74.26808594 -1.10316406 -73.76664063 -1.71804687 -73.25 -2.3515625 C-55.12890514 -22.94171165 -18.88235185 -13.90825737 0 0 Z M-59.33203125 12.12109375 C-63.15456116 18.47812719 -64.19953543 24.00391727 -63.9921875 31.26171875 C-63.98319931 32.07809814 -63.97421112 32.89447754 -63.96495056 33.7355957 C-63.93518852 36.32809056 -63.88555911 38.91961392 -63.83203125 41.51171875 C-63.52967522 57.50468123 -63.86171609 72.73172826 -68.51953125 88.19921875 C-68.77613525 89.08134033 -69.03273926 89.96346191 -69.29711914 90.87231445 C-71.23569146 97.30813923 -73.67283231 103.23463884 -76.765625 109.2109375 C-77.09691406 109.97019531 -77.42820313 110.72945313 -77.76953125 111.51171875 C-77.43953125 112.17171875 -77.10953125 112.83171875 -76.76953125 113.51171875 C-67.27760862 103.96930717 -61.28483786 93.45658682 -57.76953125 80.51171875 C-56.55523437 80.72828125 -55.3409375 80.94484375 -54.08984375 81.16796875 C-22.63762373 86.42195101 7.3494183 82.14878125 38.23046875 75.51171875 C37.60744054 71.16273749 36.58378504 67.84345988 34.50390625 63.94921875 C33.5601076 62.14268391 32.67865689 60.3032816 31.83203125 58.44921875 C27.19076686 48.48748056 21.08847721 40.06902508 14.23046875 31.51171875 C13.80386963 30.96966797 13.37727051 30.42761719 12.93774414 29.86914062 C8.69192559 24.58960834 3.53052621 20.67391077 -1.76953125 16.51171875 C-2.4759375 15.939375 -3.18234375 15.36703125 -3.91015625 14.77734375 C-19.27739873 2.65846147 -44.76274768 -5.2163537 -59.33203125 12.12109375 Z " fill="#F79504" transform="translate(259.76953125,35.48828125)"/>
<path d="M0 0 C4.22323462 9.41002278 4.22323462 9.41002278 6 14 C6.66 14 7.32 14 8 14 C10 17 10 17 10 21 C10.55558594 21.22300781 11.11117187 21.44601562 11.68359375 21.67578125 C14.70940729 23.40554649 16.68143767 25.64512858 19.0625 28.1875 C24.18378518 33.47702147 29.57701876 37.36244857 36 41 C36.87269531 41.52207031 37.74539062 42.04414063 38.64453125 42.58203125 C59.20428085 54.4723696 82.20046243 57.40143295 105.5 57.25 C106.33028717 57.24723053 107.16057434 57.24446106 108.01602173 57.24160767 C118.09218766 57.2021998 128.14160441 57.0385527 138.1875 56.1875 C139.0640625 56.11756836 139.940625 56.04763672 140.84375 55.97558594 C145.12986455 55.53539987 147.05241492 55.00538087 150 52 C152.776643 51.16494158 155.49256811 50.45956167 158.3125 49.8125 C165.8776857 47.94233025 173.22764567 45.69576606 180.5625 43.0625 C181.45300049 42.75094971 182.34350098 42.43939941 183.26098633 42.1184082 C188.91078007 40.05038242 193.72407491 37.47641797 198.69116211 34.07202148 C201 33 201 33 203.68969727 33.13598633 C206 34 206 34 207.625 37.140625 C208.10398484 38.50333266 208.56107941 39.87386506 209 41.25 C209.50277851 42.71653295 210.00670105 44.18267414 210.51171875 45.6484375 C210.88176025 46.75010254 210.88176025 46.75010254 211.25927734 47.87402344 C212.32215356 50.92462532 213.57685883 53.89094439 214.8125 56.875 C218.94424354 67.72415884 218.83800915 78.19547484 214.84375 89.1796875 C209.89674773 99.98064245 202.8597946 106.58820266 192.28515625 111.80859375 C183.44224104 115.01559629 174.28581725 115.46663179 164.96484375 115.96484375 C163.61159087 116.04264618 162.25838103 116.12120049 160.9052124 116.20045471 C158.0542906 116.3665436 155.20319691 116.52899087 152.35189819 116.68847656 C144.95732302 117.10336756 137.56458353 117.54935511 130.171875 117.99609375 C129.45020834 118.03956814 128.72854168 118.08304253 127.98500633 118.12783432 C112.28159796 119.07660017 96.64433447 120.33005353 81 122 C79.55764049 122.15110155 78.11525659 122.30197033 76.67285156 122.45263672 C52.61036117 124.97690188 28.57037816 127.77518023 4.68432617 131.65405273 C-19.30313626 135.52071488 -46.78319783 138.79621373 -67.8671875 123.7578125 C-75.63501568 117.35575631 -80.85939163 109.88725094 -83 100 C-83.08920239 98.53068522 -83.13060841 97.05795589 -83.1328125 95.5859375 C-83.13490723 94.74708008 -83.13700195 93.90822266 -83.13916016 93.04394531 C-83.13215088 91.72281738 -83.13215088 91.72281738 -83.125 90.375 C-83.12161621 89.47362305 -83.11823242 88.57224609 -83.11474609 87.64355469 C-83.05206478 79.58827666 -82.67168809 71.95479023 -80.54296875 64.16015625 C-79.45337226 59.82528675 -78.76071667 55.40244543 -78 51 C-87.92753858 53.68531781 -97.65464699 56.43465998 -106.875 61.0625 C-107.82632813 61.53623047 -107.82632813 61.53623047 -108.796875 62.01953125 C-115.30673778 65.42812893 -121.61879921 69.75476101 -124 77 C-124.52455747 81.28131461 -123.95923044 84.57522305 -121.53515625 88.17578125 C-119.7724631 90.22389955 -117.94481942 92.12478464 -116 94 C-114.31204883 95.65025499 -112.64450472 97.3056618 -111 99 C-111 99.66 -111 100.32 -111 101 C-123.07374756 100.39631262 -132.0383413 95.95158212 -140.7109375 87.56640625 C-146.92314707 80.60152282 -148.348563 73.33019422 -148.29296875 64.24609375 C-147.83011031 59.11762219 -146.10276998 54.66600054 -144 50 C-143.72929687 49.29875 -143.45859375 48.5975 -143.1796875 47.875 C-141.57893578 45.33075886 -139.59750831 44.47723791 -137 43 C-135.38595876 41.5970668 -133.80347857 40.15721257 -132.25 38.6875 C-125.73092729 32.73024931 -119.25528601 28.21816234 -111 25 C-109.18706155 24.23019844 -107.3746156 23.45923656 -105.5625 22.6875 C-92.87578609 17.44218366 -80.41443075 13.0393855 -67 10 C-65.19783152 9.58370177 -63.39575314 9.16701335 -61.59375 8.75 C-57.78842266 7.87282871 -53.97980971 7.01245873 -50.16796875 6.1640625 C-47.22047254 5.50741317 -44.29251784 4.82217956 -41.36328125 4.0859375 C-28.00088731 0.83162754 -13.72926653 -0.10741786 0 0 Z " fill="#273349" transform="translate(175,266)"/>
<path d="M0 0 C2.875 2.4375 2.875 2.4375 5 5 C6.0828125 6.2375 6.0828125 6.2375 7.1875 7.5 C11.94949014 14.06826226 11.95263975 21.14715882 11 29 C9.59598713 32.90240838 7.64116353 35.82174451 5 39 C4.41605469 39.71929687 3.83210938 40.43859375 3.23046875 41.1796875 C-8.09221579 53.0160244 -26.96975489 54.09420079 -42.296875 55.703125 C-44.81999291 55.98023044 -47.33010691 56.30433997 -49.84375 56.65625 C-50.93888916 56.80755371 -50.93888916 56.80755371 -52.05615234 56.96191406 C-53.97758712 57.22947283 -55.89895271 57.49752829 -57.8203125 57.765625 C-60.84973161 57.98892371 -63.1092547 57.91063771 -66 57 C-70.08584167 48.82831666 -66.37149993 36.23048054 -63.69775391 27.8984375 C-61.83863479 22.84017639 -59.06504371 18.40178084 -56 14 C-55.53851563 13.32453125 -55.07703125 12.6490625 -54.6015625 11.953125 C-42.38650638 -4.00411594 -17.53794942 -9.81993797 0 0 Z " fill="#F79403" transform="translate(279,180)"/>
<path d="M0 0 C-10.20911565 3.55334944 -20.32995812 5.48027889 -31 7 C-31.73814941 7.10586426 -32.47629883 7.21172852 -33.23681641 7.32080078 C-40.52425192 8.34653618 -47.63354922 9.10569962 -55 9 C-52.68582106 14.93008355 -48.83283349 18.11995791 -44 22 C-44.99 22 -45.98 22 -47 22 C-61.93826056 23.03022487 -76.08056934 27.7736806 -90 33 C-77.91999244 51.97903411 -55.22284667 60.8510618 -34.20703125 65.8984375 C-9.90011306 71.29169507 14.20329473 71.16549809 38.68603516 67.27539062 C41.14433805 66.98282197 43.52667294 66.95400499 46 67 C42.67457274 70.82497977 39.01290431 70.80308159 34.1875 71.1875 C33.25333252 71.26572998 32.31916504 71.34395996 31.35668945 71.42456055 C22.30816367 72.07662327 13.24969474 72.23882756 4.18081665 72.29653931 C2.54404278 72.30701694 0.90728976 72.32182938 -0.72940063 72.34140015 C-29.89575805 72.64280219 -61.82801536 65.43407228 -83.53515625 44.7265625 C-85.63878375 42.64955158 -87.68363077 40.52603665 -89.70703125 38.37109375 C-91.76736835 35.97795248 -91.76736835 35.97795248 -94 35 C-94.73075648 32.6859378 -95.40138258 30.35171131 -96 28 C-96.66 28 -97.32 28 -98 28 C-98.82113177 26.60922699 -99.63152495 25.21211107 -100.4375 23.8125 C-100.88996094 23.03519531 -101.34242188 22.25789063 -101.80859375 21.45703125 C-103.02391499 18.95068023 -103.57626575 16.74209635 -104 14 C-105.72283203 14.19916016 -105.72283203 14.19916016 -107.48046875 14.40234375 C-109.04943625 14.58110622 -110.61845015 14.75946177 -112.1875 14.9375 C-113.01685059 15.03248779 -113.84620117 15.12747559 -114.70068359 15.2253418 C-119.17912641 15.72694473 -123.6218248 16.10475515 -128.125 16.3125 C-141.55995725 17.25380274 -155.1734313 20.84498192 -168.171875 24.265625 C-170.34090513 24.82885382 -172.52017229 25.3527826 -174.703125 25.859375 C-184.47674404 28.13924949 -193.69478194 31.25515679 -203 35 C-204.09570312 35.43570313 -205.19140625 35.87140625 -206.3203125 36.3203125 C-209.23386323 37.50510679 -212.12101423 38.73374122 -215 40 C-215.83789062 40.36480469 -216.67578125 40.72960937 -217.5390625 41.10546875 C-227.45263318 45.71606591 -235.86340892 52.78802154 -244 60 C-239.0075965 48.7796992 -227.38853557 43.2664293 -217 38 C-216.07316406 37.52820313 -215.14632812 37.05640625 -214.19140625 36.5703125 C-211.4928842 35.28209448 -208.77062915 34.12534552 -206 33 C-205.38479492 32.74541016 -204.76958984 32.49082031 -204.13574219 32.22851562 C-170.68257825 18.55399697 -134.39942565 14.0781404 -98.69386292 10.5955658 C-95.58584508 10.2880764 -92.50187394 9.92742085 -89.41088867 9.47705078 C-86.1529445 9.02139099 -82.95134332 8.75541146 -79.66796875 8.5703125 C-78.47042969 8.49893066 -77.27289063 8.42754883 -76.0390625 8.35400391 C-74.76804688 8.27843262 -73.49703125 8.20286133 -72.1875 8.125 C-50.15357222 6.74080007 -27.25863344 5.26440955 -5.87255859 -0.58154297 C-3.61871085 -1.08520595 -2.17464497 -0.69899303 0 0 Z " fill="#939FAC" transform="translate(279,252)"/>
<path d="M0 0 C3.73487777 0.4979837 5.81237635 0.87491756 9 3 C9 3.66 9 4.32 9 5 C10.11737549 5.38744385 10.11737549 5.38744385 11.25732422 5.78271484 C14.09354026 7.04151609 15.69077958 8.3093941 17.8828125 10.4765625 C18.92115234 11.48203125 18.92115234 11.48203125 19.98046875 12.5078125 C21.41801855 13.92703289 22.85551801 15.34630427 24.29296875 16.765625 C25.32744141 17.76722656 25.32744141 17.76722656 26.3828125 18.7890625 C27.00559082 19.40475098 27.62836914 20.02043945 28.27001953 20.65478516 C30.02947111 22.30692403 30.02947111 22.30692403 33 22 C34.05207123 19.39023408 34.05207123 19.39023408 34 16 C32.6565902 13.78082305 31.1395989 11.89190756 29.4453125 9.9296875 C27.9381887 7.91747356 27.4253213 6.45377672 27 4 C52.02604539 23.13503471 65.31105975 60.47002414 72 90 C72.12174039 83.50479218 71.40108593 77.49022542 70.33984375 71.07421875 C70 68 70 68 71 65 C78.79819203 64.512613 84.61774262 65.53377066 91 70.1875 C91.66 70.785625 92.32 71.38375 93 72 C92.67 72.66 92.34 73.32 92 74 C90.88625 73.071875 90.88625 73.071875 89.75 72.125 C85.71663541 69.00830918 82.84318193 67.77709331 77.75 67.375 C76.85796875 67.30023438 75.9659375 67.22546875 75.046875 67.1484375 C74.03367187 67.07496094 74.03367187 67.07496094 73 67 C73.144375 67.68320313 73.28875 68.36640625 73.4375 69.0703125 C75.45453399 80.02392765 75.19426632 90.90141572 75 102 C74.01 102.33 73.02 102.66 72 103 C71.03917129 98.87557723 70.08179857 94.75035939 69.125 90.625 C68.85558594 89.46871094 68.58617187 88.31242187 68.30859375 87.12109375 C66.75956501 80.43382333 65.29284972 73.74170071 64 67 C63.34 67 62.68 67 62 67 C60.35 63.7 58.7 60.4 57 57 C54.75675164 58.81193006 54.75675164 58.81193006 54.8046875 61.3828125 C54.82789063 62.28773437 54.85109375 63.19265625 54.875 64.125 C54.89304687 65.03507812 54.91109375 65.94515625 54.9296875 66.8828125 C54.95289063 67.58148438 54.97609375 68.28015625 55 69 C51.20847648 69.79235325 47.41675484 70.58375456 43.625 71.375 C42.56410156 71.59671875 41.50320313 71.8184375 40.41015625 72.046875 C38.28590117 72.48997115 36.16122405 72.93104875 34.03613281 73.37011719 C32.13300291 73.76494472 30.23108511 74.16571199 28.33105469 74.57519531 C17.57693234 76.84387318 7.01779167 77.1605806 -3.93896484 77.13037109 C-6.2315136 77.12504296 -8.52386367 77.13032736 -10.81640625 77.13671875 C-34.53648624 77.14886061 -34.53648624 77.14886061 -42 75 C-42.20625 75.928125 -42.4125 76.85625 -42.625 77.8125 C-46.37016352 90.73851576 -55.57191676 101.80630415 -64.875 111.1875 C-65.44677979 111.76483887 -66.01855957 112.34217773 -66.60766602 112.93701172 C-70.74292089 117 -70.74292089 117 -73 117 C-71.66637334 112.99912001 -69.99801067 110.90716186 -67 108 C-65.95650161 106.36021682 -64.94392019 104.69905634 -64 103 C-63.34 103.33 -62.68 103.66 -62 104 C-52.92015259 95.72131559 -47.38235571 84.32797609 -43 73 C-41.1873655 73.14415198 -39.37489978 73.29042636 -37.5625 73.4375 C-36.04849609 73.55931641 -36.04849609 73.55931641 -34.50390625 73.68359375 C-32.66892647 73.84929427 -30.83380958 74.0207916 -29.00561523 74.24951172 C-5.7249574 77.15729349 18.19449755 74.5973629 40.93920898 69.27050781 C45.04714285 68.31877695 48.78201267 67.80706367 53 68 C52.08382545 65.95622601 51.16665627 63.91289506 50.24609375 61.87109375 C49.38257478 59.88148107 48.5650982 57.87149275 47.78515625 55.84765625 C42.68059417 42.93089482 35.00093859 31.60618475 25.36328125 21.6015625 C24 20 24 20 24 18 C23.41347656 17.731875 22.82695312 17.46375 22.22265625 17.1875 C19.98508723 15.99203255 18.32301441 14.68726121 16.4375 13 C14.33004803 11.12253722 12.36667471 9.57778314 10 8 C10 7.34 10 6.68 10 6 C8.9171875 5.62875 8.9171875 5.62875 7.8125 5.25 C4.75286734 3.89016326 2.5326262 2.17082246 0 0 Z " fill="#F39F22" transform="translate(245,43)"/>
<path d="M0 0 C4.22319727 3.24530681 8.20667766 6.69541121 12.0703125 10.359375 C7.97228604 10.359375 6.04341084 8.20912884 3.0078125 5.734375 C-12.51334465 -6.52952218 -27.88242216 -12.85786912 -47.9296875 -11.640625 C-53.61961597 -10.95164046 -58.14803777 -9.91947053 -62.9296875 -6.640625 C-63.71601563 -6.35445312 -64.50234375 -6.06828125 -65.3125 -5.7734375 C-71.44207295 -3.12033876 -76.49409368 2.85536269 -79.04931641 8.98217773 C-83.660525 21.43346395 -83.22959315 33.59307962 -82.9921875 46.671875 C-82.94409635 49.64071793 -82.90081698 52.60934039 -82.86997986 55.57841492 C-82.85046918 57.41173695 -82.82113078 59.24499172 -82.78004456 61.07795715 C-82.71605555 66.53294655 -83.38763188 71.12062627 -84.9296875 76.359375 C-85.58453125 76.29008789 -86.239375 76.22080078 -86.9140625 76.14941406 C-93.93013312 75.45325734 -100.88084378 75.14561584 -107.9296875 75.109375 C-108.93257812 75.08875 -109.93546875 75.068125 -110.96875 75.046875 C-119.05223701 75.00509987 -126.90285638 75.92649786 -133.9296875 80.171875 C-140.78392336 87.66869547 -141.15395794 98.24121625 -142.14477539 107.8918457 C-142.55104321 111.70701715 -143.12258332 115.40786913 -143.9296875 119.16015625 C-145.09187131 124.78652484 -145.54537722 130.38358859 -145.9296875 136.109375 C-146.01089844 137.24753662 -146.09210938 138.38569824 -146.17578125 139.55834961 C-146.66631248 146.6828441 -147.06872805 153.80937871 -147.4296875 160.94140625 C-147.49265015 162.17855881 -147.49265015 162.17855881 -147.55688477 163.44070435 C-147.76224272 167.50468492 -147.95990467 171.56881367 -148.14453125 175.63378906 C-148.64816492 186.26968531 -149.6369569 196.79083167 -150.9296875 207.359375 C-146.9696875 207.359375 -143.0096875 207.359375 -138.9296875 207.359375 C-138.9296875 207.689375 -138.9296875 208.019375 -138.9296875 208.359375 C-141.07439343 208.72030604 -143.22049547 209.07295089 -145.3671875 209.421875 C-146.56214844 209.61910156 -147.75710937 209.81632813 -148.98828125 210.01953125 C-150.44427734 210.18775391 -150.44427734 210.18775391 -151.9296875 210.359375 C-152.2596875 210.029375 -152.5896875 209.699375 -152.9296875 209.359375 C-152.87403622 207.11618535 -152.74193111 204.8748941 -152.58203125 202.63671875 C-152.53312241 201.92789047 -152.48421356 201.21906219 -152.43382263 200.48875427 C-152.32634739 198.93415061 -152.21668756 197.37969687 -152.10516357 195.82537842 C-151.8665846 192.47257617 -151.64486144 189.11872717 -151.42227173 185.76483154 C-151.24201794 183.05193858 -151.05979786 180.33918436 -150.87695312 177.62646484 C-150.78281128 176.229534 -150.78281128 176.229534 -150.68676758 174.80438232 C-150.55517862 172.85502482 -150.42333576 170.90568443 -150.29125977 168.95635986 C-149.6100255 158.8913893 -148.93519787 148.82754325 -148.39453125 138.75390625 C-145.72011238 89.18158109 -145.72011238 89.18158109 -135.703125 78.7578125 C-128.03738308 72.71302042 -119.29620289 72.16522442 -109.9296875 72.171875 C-108.53423706 72.1709082 -108.53423706 72.1709082 -107.1105957 72.16992188 C-99.88122869 72.22504572 -93.02115112 72.88582412 -85.9296875 74.359375 C-84.19034159 58.62150017 -84.19034159 58.62150017 -85.44921875 43.0546875 C-87.58804196 31.05641095 -85.69511794 15.54048968 -79.578125 5.0390625 C-78.13707611 3.01234668 -76.60421326 1.19608243 -74.9296875 -0.640625 C-74.42824219 -1.25550781 -73.92679687 -1.87039062 -73.41015625 -2.50390625 C-55.03885473 -23.37835347 -19.13630269 -13.74124868 0 0 Z " fill="#FCE3B7" transform="translate(259.9296875,35.640625)"/>
<path d="M0 0 C2.625 1.015625 2.625 1.015625 4.25 4.15625 C4.72898484 5.51895766 5.18607941 6.88949006 5.625 8.265625 C6.12777851 9.73215795 6.63170105 11.19829914 7.13671875 12.6640625 C7.50676025 13.76572754 7.50676025 13.76572754 7.88427734 14.88964844 C8.94715356 17.94025032 10.20185883 20.90656939 11.4375 23.890625 C15.56924354 34.73978384 15.46300915 45.21109984 11.46875 56.1953125 C6.52174773 66.99626745 -0.5152054 73.60382766 -11.08984375 78.82421875 C-19.93275896 82.03122129 -29.08918275 82.48225679 -38.41015625 82.98046875 C-39.76340913 83.05827118 -41.11661897 83.13682549 -42.4697876 83.21607971 C-45.3207094 83.3821686 -48.17180309 83.54461587 -51.02310181 83.70410156 C-58.41767698 84.11899256 -65.81041647 84.56498011 -73.203125 85.01171875 C-73.92479166 85.05519314 -74.64645832 85.09866753 -75.38999367 85.14345932 C-91.09340204 86.09222517 -106.73066553 87.34567853 -122.375 89.015625 C-123.81735951 89.16672655 -125.25974341 89.31759533 -126.70214844 89.46826172 C-150.76463883 91.99252688 -174.80462184 94.79080523 -198.69067383 98.66967773 C-219.92415008 102.09241072 -244.377802 105.52479076 -264.375 95.015625 C-264.705 94.355625 -265.035 93.695625 -265.375 93.015625 C-264.72015625 93.19738281 -264.0653125 93.37914062 -263.390625 93.56640625 C-261.44139896 94.10326935 -259.48926981 94.62964629 -257.53515625 95.1484375 C-255.59254206 95.68151581 -253.65912893 96.25176672 -251.74609375 96.8828125 C-231.78800391 102.98353865 -208.73391464 98.14935618 -188.64916992 94.69067383 C-149.65443003 88.09768042 -110.14474895 84.43893416 -70.66246033 82.53887939 C-65.843063 82.30599688 -61.02423612 82.06210445 -56.20535278 81.81884766 C-52.64052253 81.64444217 -49.07519728 81.48802626 -45.50952148 81.33203125 C-20.4576416 80.39942249 -20.4576416 80.39942249 0.625 68.015625 C2.98999035 65.17466175 4.86822433 62.26282647 6.625 59.015625 C7.22441406 57.92314453 7.22441406 57.92314453 7.8359375 56.80859375 C12.37575295 48.13142876 13.61706386 37.44643696 10.68359375 27.9765625 C9.8543409 26.21407525 8.98287356 24.47082943 8.0703125 22.75 C6.4056685 19.60067352 5.10334627 16.39744398 3.8125 13.078125 C3.39355469 12.01722656 2.97460938 10.95632813 2.54296875 9.86328125 C1.625 7.015625 1.625 7.015625 1.625 3.015625 C-0.10453968 3.63959203 -1.833615 4.26484628 -3.5625 4.890625 C-4.52542969 5.23867188 -5.48835938 5.58671875 -6.48046875 5.9453125 C-8.3605338 6.64050525 -10.22061061 7.39337222 -12.05078125 8.2109375 C-14.375 9.015625 -14.375 9.015625 -17.375 8.015625 C-16.37597656 7.52191406 -15.37695312 7.02820313 -14.34765625 6.51953125 C-13.0442186 5.87250105 -11.74083602 5.22535989 -10.4375 4.578125 C-9.77814453 4.25263672 -9.11878906 3.92714844 -8.43945312 3.59179688 C-1.23516651 0.0081261 -1.23516651 0.0081261 0 0 Z " fill="#DBDFE6" transform="translate(378.375,298.984375)"/>
<path d="M0 0 C13.46278285 11.7228893 11.86817305 40.25556373 13.64276123 57.04223633 C14.00021753 60.40447956 14.3706775 63.76515628 14.75 67.125 C14.82514832 67.79154602 14.90029663 68.45809204 14.97772217 69.14483643 C17.15650409 87.98662515 21.31542645 106.63100491 26 125 C38.41322646 119.0416513 45.54740823 112.90509609 51 100 C53.561929 92.31421301 52.41229382 84.1134976 49.39453125 76.734375 C45.2657425 68.63871078 39.29771331 59.97772314 30.84375 55.98046875 C29 55 29 55 28.25 52.875 C28.1675 52.25625 28.085 51.6375 28 51 C32.05431692 49.84162374 34.21812119 50.16308743 38 52 C35.50935112 52.68707555 33.62113708 53 31 53 C32.2684375 53.7734375 32.2684375 53.7734375 33.5625 54.5625 C40.27319886 59.03629924 45.55785 65.336775 50 72 C50 72.99 50 73.98 50 75 C50.66 75 51.32 75 52 75 C54.93916457 83.91117226 56.30146752 96.52288217 52.09375 105.25 C45.99145224 115.01367642 37.54824215 123.14780861 27 128 C24.8046875 127.58984375 24.8046875 127.58984375 23 127 C22.89042969 126.0821875 22.78085937 125.164375 22.66796875 124.21875 C21.79535299 116.43433068 21.79535299 116.43433068 19.5 109 C18.00174274 105.49661238 17.53571034 102.15230732 17.0625 98.375 C15.89222382 86.365773 15.89222382 86.365773 11 76 C10.63146321 73.4976662 10.32708643 71.01410888 10.0625 68.5 C9.97677734 67.71189941 9.89105469 66.92379883 9.80273438 66.11181641 C9.07598637 59.20903653 8.53207061 52.29505696 8 45.375 C6.73574431 26.1282278 6.73574431 26.1282278 1.90234375 7.55078125 C1.01517961 5.04291033 0.45738285 2.61698437 0 0 Z " fill="#FEE7BC" transform="translate(338,117)"/>
<path d="M0 0 C0 0.66 0 1.32 0 2 C0.66 2 1.32 2 2 2 C3.18213052 3.14835536 4.35779073 4.30446807 5.4921875 5.5 C7.71869768 7.71497386 10.18069511 9.62656117 12.64453125 11.5703125 C14 13 14 13 14 16 C14.66 16 15.32 16 16 16 C21.62662976 22.15412631 22.38929755 27.46552912 22.375 35.5 C22.37367065 36.82608276 22.37367065 36.82608276 22.37231445 38.17895508 C22.24197681 45.45338371 21.42107741 52.44388844 18 59 C16.515 59.495 16.515 59.495 15 60 C14.30199696 61.31719929 13.63940252 62.65337955 13 64 C11.34375 65.921875 11.34375 65.921875 9.5 67.75 C8.8915625 68.36359375 8.283125 68.9771875 7.65625 69.609375 C6 71 6 71 4 71 C4 71.66 4 72.32 4 73 C2.02 73.66 0.04 74.32 -2 75 C-2 75.66 -2 76.32 -2 77 C-20.77111755 86.34860776 -20.77111755 86.34860776 -29 84 C-28.12432373 83.72905518 -28.12432373 83.72905518 -27.23095703 83.45263672 C-11.81090035 78.92936895 -11.81090035 78.92936895 2 71 C2.845625 70.37867188 3.69125 69.75734375 4.5625 69.1171875 C12.23114549 62.93205974 18.28001204 53.89993071 20 44 C21.0789135 31.93739328 17.67065051 22.31888946 10 13 C4.00480844 6.78138515 -2.15412202 1.65135091 -10 -2 C-11.0725 -2.515625 -12.145 -3.03125 -13.25 -3.5625 C-14.49294585 -4.05967834 -15.7441762 -4.53631121 -17 -5 C-17.8765625 -5.33 -18.753125 -5.66 -19.65625 -6 C-42.04406986 -13.68874621 -67.65687401 -12.37926559 -89.06640625 -2.1171875 C-91.49107837 -0.91229654 -93.86226902 0.34965681 -96.2421875 1.64453125 C-99 3 -99 3 -102 3 C-94.86411357 -3.21512689 -86.95241873 -6.68416238 -77.9375 -9.25 C-77.09123047 -9.50523437 -76.24496094 -9.76046875 -75.37304688 -10.0234375 C-50.8283378 -17.21463985 -21.73395128 -13.51184802 0 0 Z " fill="#FEEDC6" transform="translate(308,166)"/>
<path d="M0 0 C0.84175781 -0.01675781 1.68351562 -0.03351563 2.55078125 -0.05078125 C3.25589844 0.06910156 3.96101563 0.18898438 4.6875 0.3125 C5.3475 1.3025 6.0075 2.2925 6.6875 3.3125 C5.74648437 3.10496094 4.80546875 2.89742188 3.8359375 2.68359375 C-1.22232971 1.97168008 -5.78005252 3.18818407 -10.6875 4.375 C-11.64543457 4.59889404 -12.60336914 4.82278809 -13.59033203 5.0534668 C-22.3992285 7.18658576 -30.86430113 10.05198823 -39.3125 13.3125 C-27.23249244 32.29153411 -4.53534667 41.1635618 16.48046875 46.2109375 C40.78738694 51.60419507 64.89079473 51.47799809 89.37353516 47.58789062 C91.83183805 47.29532197 94.21417294 47.26650499 96.6875 47.3125 C93.36207274 51.13747977 89.70040431 51.11558159 84.875 51.5 C83.47374878 51.61734497 83.47374878 51.61734497 82.04418945 51.73706055 C72.99566367 52.38912327 63.93719474 52.55132756 54.86831665 52.60903931 C53.23154278 52.61951694 51.59478976 52.63432938 49.95809937 52.65390015 C18.57080898 52.97825307 -13.3028775 44.3821588 -36.1875 22 C-36.6937793 21.50862549 -37.20005859 21.01725098 -37.72167969 20.51098633 C-40.56569505 17.58288444 -41.96911012 15.41078351 -42.3125 11.3125 C-41.6525 11.3125 -40.9925 11.3125 -40.3125 11.3125 C-40.3125 10.6525 -40.3125 9.9925 -40.3125 9.3125 C-39.69761719 9.19132812 -39.08273438 9.07015625 -38.44921875 8.9453125 C-37.64097656 8.77773438 -36.83273438 8.61015625 -36 8.4375 C-35.19949219 8.27507812 -34.39898437 8.11265625 -33.57421875 7.9453125 C-31.05948882 7.36771001 -31.05948882 7.36771001 -28.3125 5.3125 C-25.72407781 4.74236295 -23.17331904 4.24604842 -20.5625 3.8125 C-16.50406492 3.12347464 -12.58748727 2.39269247 -8.62890625 1.23828125 C-5.60108496 0.39305905 -3.12604552 0.01458497 0 0 Z " fill="#ADB2BB" transform="translate(228.3125,271.6875)"/>
<path d="M0 0 C2.89932357 2.39509338 3.50168276 4.31245243 4 8 C4.99 8.33 5.98 8.66 7 9 C8.16796875 11.36328125 8.16796875 11.36328125 9.1875 14.3125 C9.53167969 15.27800781 9.87585938 16.24351563 10.23046875 17.23828125 C11 20 11 20 11 24 C7.20847648 24.79235325 3.41675484 25.58375456 -0.375 26.375 C-1.43589844 26.59671875 -2.49679687 26.8184375 -3.58984375 27.046875 C-5.71409883 27.48997115 -7.83877595 27.93104875 -9.96386719 28.37011719 C-11.86699709 28.76494472 -13.76891489 29.16571199 -15.66894531 29.57519531 C-26.42306766 31.84387318 -36.98220833 32.1605806 -47.93896484 32.13037109 C-50.2315136 32.12504296 -52.52386367 32.13032736 -54.81640625 32.13671875 C-78.53648624 32.14886061 -78.53648624 32.14886061 -86 30 C-86.309375 31.3921875 -86.309375 31.3921875 -86.625 32.8125 C-90.37016352 45.73851576 -99.57191676 56.80630415 -108.875 66.1875 C-109.44677979 66.76483887 -110.01855957 67.34217773 -110.60766602 67.93701172 C-114.74292089 72 -114.74292089 72 -117 72 C-115.66637334 67.99912001 -113.99801067 65.90716186 -111 63 C-109.95650161 61.36021682 -108.94392019 59.69905634 -108 58 C-107.34 58.33 -106.68 58.66 -106 59 C-96.92015259 50.72131559 -91.38235571 39.32797609 -87 28 C-85.1873655 28.14415198 -83.37489978 28.29042636 -81.5625 28.4375 C-80.04849609 28.55931641 -80.04849609 28.55931641 -78.50390625 28.68359375 C-76.66892647 28.84929427 -74.83380958 29.0207916 -73.00561523 29.24951172 C-49.7249574 32.15729349 -25.80550245 29.5973629 -3.06079102 24.27050781 C1.04714285 23.31877695 4.78201267 22.80706367 9 23 C8.76925781 22.48953125 8.53851563 21.9790625 8.30078125 21.453125 C6.23331524 16.84422845 4.21950958 12.21413374 2.25 7.5625 C1.82203125 6.55316406 1.3940625 5.54382813 0.953125 4.50390625 C0 2 0 2 0 0 Z " fill="#FCE7BC" transform="translate(289,88)"/>
<path d="M0 0 C-0.33 0.66 -0.66 1.32 -1 2 C-2.984375 2.4921875 -2.984375 2.4921875 -5.75 2.875 C-18.26756711 4.77659213 -30.82288367 6.98289609 -43.06640625 10.23046875 C-45.27372846 10.80948669 -47.49207157 11.34673798 -49.71484375 11.86328125 C-59.48492077 14.13981567 -68.69881613 17.25678033 -78 21 C-79.64355469 21.65355469 -79.64355469 21.65355469 -81.3203125 22.3203125 C-84.23386323 23.50510679 -87.12101423 24.73374122 -90 26 C-90.83789062 26.36480469 -91.67578125 26.72960937 -92.5390625 27.10546875 C-102.45263318 31.71606591 -110.86340892 38.78802154 -119 46 C-114.0075965 34.7796992 -102.38853557 29.2664293 -92 24 C-91.07316406 23.52820313 -90.14632812 23.05640625 -89.19140625 22.5703125 C-86.4928842 21.28209448 -83.77062915 20.12534552 -81 19 C-80.38479492 18.74541016 -79.76958984 18.49082031 -79.13574219 18.22851562 C-55.77983057 8.68141121 -25.55038172 -0.63415679 0 0 Z " fill="#E3E7EC" transform="translate(154,266)"/>
<path d="M0 0 C0.93423645 3.01031744 1.04449911 3.86650268 0 7 C-0.43246177 10.40518216 -0.80746274 13.81075 -1.16210938 17.22460938 C-1.59336579 21.14799089 -2.17341307 24.96423424 -3.00390625 28.82421875 C-4.16528732 34.44232553 -4.6162434 40.03246278 -5 45.75 C-5.08121094 46.88816162 -5.16242188 48.02632324 -5.24609375 49.19897461 C-5.73662498 56.3234691 -6.13904055 63.45000371 -6.5 70.58203125 C-6.5419751 71.40679962 -6.5839502 72.23156799 -6.62719727 73.08132935 C-6.83255522 77.14530992 -7.03021717 81.20943867 -7.21484375 85.27441406 C-7.71847742 95.91031031 -8.7072694 106.43145667 -10 117 C-6.04 117 -2.08 117 2 117 C2 117.33 2 117.66 2 118 C-0.14470593 118.36093104 -2.29080797 118.71357589 -4.4375 119.0625 C-5.63246094 119.25972656 -6.82742187 119.45695312 -8.05859375 119.66015625 C-9.51458984 119.82837891 -9.51458984 119.82837891 -11 120 C-11.33 119.67 -11.66 119.34 -12 119 C-11.94434872 116.75681035 -11.81224361 114.5155191 -11.65234375 112.27734375 C-11.57898048 111.21410133 -11.57898048 111.21410133 -11.50413513 110.12937927 C-11.39665989 108.57477561 -11.28700006 107.02032187 -11.17547607 105.46600342 C-10.9368971 102.11320117 -10.71517394 98.75935217 -10.49258423 95.40545654 C-10.31233044 92.69256358 -10.13011036 89.97980936 -9.94726562 87.26708984 C-9.85312378 85.870159 -9.85312378 85.870159 -9.75708008 84.44500732 C-9.62549112 82.49564982 -9.49364826 80.54630943 -9.36157227 78.59698486 C-8.6803377 68.53200997 -8.00573741 58.46815858 -7.46484375 48.39453125 C-6.69185379 34.12161642 -5.74888568 20.05596877 -3 6 C-2.34 6 -1.68 6 -1 6 C-0.67 4.02 -0.34 2.04 0 0 Z " fill="#FDE6BB" transform="translate(119,126)"/>
<path d="M0 0 C0.58136719 0.22558594 1.16273438 0.45117188 1.76171875 0.68359375 C1.12105469 1.17988281 0.48039062 1.67617187 -0.1796875 2.1875 C-17.00994846 15.40590168 -28.42307967 32.33588925 -31.57119751 53.97158813 C-31.85451781 56.36204755 -32.11029966 58.75337969 -32.3515625 61.1484375 C-32.4823822 62.38587708 -32.4823822 62.38587708 -32.61584473 63.64831543 C-32.82782782 65.65960523 -33.03369487 67.6715381 -33.23828125 69.68359375 C-38.76976905 70.11524496 -44.3015845 70.54232715 -49.83374023 70.96533203 C-51.71241584 71.10960967 -53.59099903 71.25509639 -55.46948242 71.40185547 C-58.18254076 71.61359934 -60.89591091 71.82087248 -63.609375 72.02734375 C-64.4378746 72.09296509 -65.26637421 72.15858643 -66.11997986 72.22619629 C-71.5085357 72.63068132 -76.83436053 72.74045219 -82.23828125 72.68359375 C-82.23828125 72.35359375 -82.23828125 72.02359375 -82.23828125 71.68359375 C-81.47902344 71.55082031 -80.71976562 71.41804688 -79.9375 71.28125 C-78.44669922 71.01634766 -78.44669922 71.01634766 -76.92578125 70.74609375 C-75.44658203 70.48505859 -75.44658203 70.48505859 -73.9375 70.21875 C-71.15638912 69.72612528 -71.15638912 69.72612528 -68.23828125 68.68359375 C-65.65197901 68.59877602 -63.09350069 68.56761146 -60.5078125 68.5859375 C-59.38218147 68.58805992 -59.38218147 68.58805992 -58.23381042 68.59022522 C-55.83942665 68.59581815 -53.44513672 68.60836931 -51.05078125 68.62109375 C-49.42643364 68.62610967 -47.80208457 68.63067241 -46.17773438 68.63476562 C-42.19788056 68.64578527 -38.21809681 68.66304502 -34.23828125 68.68359375 C-34.25133301 67.90145508 -34.26438477 67.11931641 -34.27783203 66.31347656 C-34.4607485 47.42372238 -29.48123884 29.28922737 -17.23828125 14.68359375 C-16.64917969 13.9565625 -16.06007813 13.22953125 -15.453125 12.48046875 C-4.46801092 -0.63160364 -4.46801092 -0.63160364 0 0 Z " fill="#FDE7B8" transform="translate(204.23828125,170.31640625)"/>
<path d="M0 0 C0.99 0.33 1.98 0.66 3 1 C2.54109375 1.31710938 2.0821875 1.63421875 1.609375 1.9609375 C-3.87931874 6.13511215 -6.43379103 10.28383289 -8 17 C-8.59023993 23.34969648 -8.28959132 29.76000145 -8.125 36.125 C-7.77271744 52.15232463 -8.11432062 67.31518072 -12.8125 82.8125 C-13.07240723 83.69832764 -13.33231445 84.58415527 -13.60009766 85.49682617 C-15.54445824 91.94232827 -17.84410681 98.03731684 -21 104 C-22.09254969 100.72235093 -21.97116024 100.18459589 -20.890625 97.0859375 C-20.63023437 96.32410156 -20.36984375 95.56226563 -20.1015625 94.77734375 C-19.82054687 93.98457031 -19.53953125 93.19179687 -19.25 92.375 C-18.98445312 91.60542969 -18.71890625 90.83585937 -18.4453125 90.04296875 C-17.36643187 86.91630983 -16.28333934 83.79160269 -15.16870117 80.67749023 C-13.5098032 75.92929467 -12.32956677 71.32875757 -11.8125 66.3125 C-11.72919434 65.55138916 -11.64588867 64.79027832 -11.56005859 64.00610352 C-11.00645211 57.88491215 -10.96541642 51.80337259 -11.01953125 45.6640625 C-11.02586075 44.83019516 -11.03219025 43.99632782 -11.03871155 43.13719177 C-11.07611982 38.89973707 -11.14249271 34.66522571 -11.24926758 30.42895508 C-11.43732619 20.30750355 -10.84321041 12.59012423 -4.9375 4 C-3 2 -3 2 0 0 Z " fill="#FCDBA3" transform="translate(205,41)"/>
<path d="M0 0 C-7.2040091 2.50740246 -14.29636796 4.38977421 -21.8125 5.625 C-22.82159424 5.79092651 -22.82159424 5.79092651 -23.85107422 5.96020508 C-37.57611882 8.10345051 -51.3485038 9.45121114 -65.1875 10.5625 C-67.52525572 10.7508454 -69.86289714 10.94026313 -72.20027161 11.13328552 C-73.63582691 11.25182287 -75.07159968 11.36776716 -76.50761414 11.48060608 C-79.24569174 11.7065529 -81.90894669 11.98121855 -84.6015625 12.53662109 C-87.43248371 13.08355599 -90.07448156 13.11243856 -92.95703125 13.09765625 C-94.06884766 13.09443359 -95.18066406 13.09121094 -96.32617188 13.08789062 C-97.47666016 13.07951172 -98.62714844 13.07113281 -99.8125 13.0625 C-101.56723633 13.05573242 -101.56723633 13.05573242 -103.35742188 13.04882812 C-106.23833358 13.0370693 -109.11914044 13.02063426 -112 13 C-112 12.67 -112 12.34 -112 12 C-98.35156657 10.2595021 -84.73609919 8.82762629 -71 8 C-49.38298141 6.66784325 -26.86222249 5.15604934 -5.87255859 -0.58154297 C-3.61871085 -1.08520595 -2.17464497 -0.69899303 0 0 Z " fill="#E3E6E9" transform="translate(279,252)"/>
<path d="M0 0 C2.98631375 3.47023666 4.95970915 6.70250475 6.6875 10.9375 C7.10386719 11.93652344 7.52023437 12.93554688 7.94921875 13.96484375 C12.36014868 26.70570828 9.93054745 40.31173718 4.25 52.25 C-3.29986016 66.31599863 -17.61919134 81.85780478 -33.41015625 86.74609375 C-33.93480469 86.82988281 -34.45945312 86.91367187 -35 87 C-31.46991258 83.12829121 -27.71411713 80.38333007 -23.33203125 77.52734375 C-17.22463282 73.52735583 -12.21625495 69.4331607 -7.52734375 63.80859375 C-6 62 -6 62 -3.8125 59.9375 C0.19814683 55.65025683 2.36314007 50.45274404 4.2890625 44.9921875 C5 43 5 43 6.0625 40.82421875 C7.38296621 36.84631429 7.38281076 33.10474609 7.375 28.9375 C7.37411377 28.09566162 7.37322754 27.25382324 7.37231445 26.38647461 C7.2281599 18.74189254 6.14619872 11.09231099 1.36328125 4.87109375 C0 3 0 3 0 0 Z " fill="#FDE5B8" transform="translate(402,189)"/>
<path d="M0 0 C2.625 1.015625 2.625 1.015625 4.25 4.15625 C4.72898484 5.51895766 5.18607941 6.88949006 5.625 8.265625 C6.12777851 9.73215795 6.63170105 11.19829914 7.13671875 12.6640625 C7.38341309 13.39850586 7.63010742 14.13294922 7.88427734 14.88964844 C8.94715356 17.94025032 10.20185883 20.90656939 11.4375 23.890625 C15.56924354 34.73978384 15.46300915 45.21109984 11.46875 56.1953125 C7.09951283 65.73481366 0.34263395 73.71744075 -9.375 78.015625 C-12.3125 78.265625 -12.3125 78.265625 -14.375 78.015625 C-13.82585937 77.75910156 -13.27671875 77.50257813 -12.7109375 77.23828125 C-4.27016502 72.82028495 2.09018476 67.39771897 6.625 59.015625 C7.02460938 58.28730469 7.42421875 57.55898438 7.8359375 56.80859375 C12.37575295 48.13142876 13.61706386 37.44643696 10.68359375 27.9765625 C9.8543409 26.21407525 8.98287356 24.47082943 8.0703125 22.75 C6.4056685 19.60067352 5.10334627 16.39744398 3.8125 13.078125 C3.39355469 12.01722656 2.97460938 10.95632813 2.54296875 9.86328125 C1.625 7.015625 1.625 7.015625 1.625 3.015625 C-0.10453968 3.63959203 -1.833615 4.26484628 -3.5625 4.890625 C-4.52542969 5.23867188 -5.48835938 5.58671875 -6.48046875 5.9453125 C-8.3605338 6.64050525 -10.22061061 7.39337222 -12.05078125 8.2109375 C-14.375 9.015625 -14.375 9.015625 -17.375 8.015625 C-16.37597656 7.52191406 -15.37695312 7.02820313 -14.34765625 6.51953125 C-13.0442186 5.87250105 -11.74083602 5.22535989 -10.4375 4.578125 C-9.77814453 4.25263672 -9.11878906 3.92714844 -8.43945312 3.59179688 C-1.23516651 0.0081261 -1.23516651 0.0081261 0 0 Z " fill="#D3D7DE" transform="translate(378.375,298.984375)"/>
<path d="M0 0 C2.74514679 2.74514679 3.40883477 5.93378909 4.5 9.5625 C4.72067139 10.28179687 4.94134277 11.00109375 5.16870117 11.7421875 C6.69404664 16.78690547 7.98367684 21.82599118 9 27 C9.25895796 20.52605112 8.39640191 14.461907 7.33984375 8.07421875 C7 5 7 5 8 2 C15.79819203 1.512613 21.61774262 2.53377066 28 7.1875 C28.66 7.785625 29.32 8.38375 30 9 C29.67 9.66 29.34 10.32 29 11 C28.2575 10.38125 27.515 9.7625 26.75 9.125 C22.71663541 6.00830918 19.84318193 4.77709331 14.75 4.375 C13.41195313 4.26285156 13.41195313 4.26285156 12.046875 4.1484375 C11.03367187 4.07496094 11.03367187 4.07496094 10 4 C10.144375 4.68320313 10.28875 5.36640625 10.4375 6.0703125 C12.45453399 17.02392765 12.19426632 27.90141572 12 39 C10.515 39.495 10.515 39.495 9 40 C8.83395264 39.26475098 8.66790527 38.52950195 8.49682617 37.77197266 C7.730635 34.38882539 6.95910243 31.00691703 6.1875 27.625 C5.92646484 26.46871094 5.66542969 25.31242187 5.39648438 24.12109375 C4.00197719 18.02658085 2.49899395 12.03985965 0.54418945 6.09912109 C0 4 0 4 0 0 Z " fill="#FBD79D" transform="translate(308,106)"/>
<path d="M0 0 C-34.16841246 15.92954953 -75.35418202 23.76019189 -112 11 C-114.43359375 9.37109375 -114.43359375 9.37109375 -116 8 C-112.7181249 8.63396967 -109.48458898 9.36574142 -106.24609375 10.19140625 C-76.89277367 17.29189924 -46.3904092 15.33327394 -18 5 C-16.7625 4.56494141 -16.7625 4.56494141 -15.5 4.12109375 C-12.98374663 3.21085816 -10.5100972 2.23431294 -8.078125 1.1171875 C-3.26771739 -1.08923913 -3.26771739 -1.08923913 0 0 Z " fill="#FBDEA9" transform="translate(367,277)"/>
<path d="M0 0 C1.32 0 2.64 0 4 0 C4.28661535 9.07615272 4.30658015 17.75934357 2.5 26.6875 C-0.05411262 39.60593279 -0.72067108 51.93755077 6.578125 63.5 C10.14181953 68.38001413 13.90644942 71.77754963 19 75 C18.01 75.495 18.01 75.495 17 76 C7.68664812 70.64482267 1.43639205 62.43452016 -1.53491211 52.14819336 C-2.02250493 49.89605203 -2.12936498 47.88838898 -2.1328125 45.5859375 C-2.13490723 44.74708008 -2.13700195 43.90822266 -2.13916016 43.04394531 C-2.1344873 42.16319336 -2.12981445 41.28244141 -2.125 40.375 C-2.11992432 39.02293457 -2.11992432 39.02293457 -2.11474609 37.64355469 C-2.05206478 29.58827666 -1.67168809 21.95479023 0.45703125 14.16015625 C1.54662774 9.82528675 2.23928333 5.40244543 3 1 C2.01 0.67 1.02 0.34 0 0 Z " fill="#A0A6B0" transform="translate(94,316)"/>
<path d="M0 0 C-3.48677239 1.91685746 -7.08143868 3.01253862 -10.875 4.1875 C-22.24260205 7.85780734 -36.59033532 12.7815978 -42.359375 24.05078125 C-43.62400627 27.89865323 -43.35048002 31.20952227 -42 35 C-39.9750758 38.00768741 -37.60466453 40.48855504 -35 43 C-33.31204883 44.65025499 -31.64450472 46.3056618 -30 48 C-30 48.66 -30 49.32 -30 50 C-37.64582582 49.61770871 -44.23604403 47.65105892 -51 44 C-51.66 43.01 -52.32 42.02 -53 41 C-50.47826902 42.00147456 -47.96457941 43.01495415 -45.46484375 44.0703125 C-44.21380859 44.59238281 -44.21380859 44.59238281 -42.9375 45.125 C-42.10089844 45.47820312 -41.26429687 45.83140625 -40.40234375 46.1953125 C-37.79010861 47.21174338 -37.79010861 47.21174338 -34 47 C-34.721875 46.46375 -35.44375 45.9275 -36.1875 45.375 C-39.71355816 42.39743978 -42.9126984 39.17460321 -45 35 C-45.12182734 33.39924548 -45.17546598 31.79283863 -45.1875 30.1875 C-45.20167969 29.33542969 -45.21585938 28.48335938 -45.23046875 27.60546875 C-44.70556833 21.67142507 -41.89045455 18.12248269 -37.72265625 14.12109375 C-27.63107777 6.25921841 -12.83442161 -0.45701205 0 0 Z " fill="#C2C7CF" transform="translate(94,317)"/>
<path d="M0 0 C2.875 2.4375 2.875 2.4375 5 5 C6.0828125 6.2375 6.0828125 6.2375 7.1875 7.5 C10.68072425 12.31824034 11.27493619 16.2713895 11.25 22.1875 C11.25773437 24.03408203 11.25773437 24.03408203 11.265625 25.91796875 C11 29 11 29 9 31 C9.04640625 30.09378906 9.0928125 29.18757813 9.140625 28.25390625 C9.39235681 19.75795774 9.31948862 12.74829984 3.38671875 6.2265625 C-4.77744166 -1.1954015 -12.85540934 -2.31515486 -23.56640625 -2.21484375 C-27.95852588 -1.94002398 -31.11461567 -0.97016458 -35 1 C-36.25103516 1.56267578 -36.25103516 1.56267578 -37.52734375 2.13671875 C-42.56027454 4.47950738 -46.33914355 6.7290008 -50 11 C-50.46792969 11.47824219 -50.93585938 11.95648438 -51.41796875 12.44921875 C-57.64112051 19.05631818 -61.29784225 27.42192375 -64 36 C-65.83882638 31.16158809 -63.56287842 27.59461196 -61.59375 23.109375 C-59.26661592 18.56918203 -56.37805991 14.80228139 -53 11 C-52.21625 10.113125 -51.4325 9.22625 -50.625 8.3125 C-36.56756141 -4.071434 -17.21721325 -9.64034974 0 0 Z " fill="#FDE6B7" transform="translate(279,180)"/>
<path d="M0 0 C4.03029761 3.31704664 5.29855639 7.00699827 6.6875 11.875 C6.89955078 12.56980469 7.11160156 13.26460937 7.33007812 13.98046875 C9.25323771 20.42335671 10.11759934 26.65808651 10.46484375 33.3828125 C10.54343644 34.81251009 10.62221869 36.24219727 10.70117188 37.671875 C10.81990496 39.8895263 10.93659557 42.10724246 11.04956055 44.32519531 C11.46982162 52.47516067 12.04034926 60.47158705 13.58764648 68.50439453 C14.17368538 72.0511616 14.13792172 75.41403521 14 79 C11.33026079 77.09408264 10.98549113 75.92633958 10.33984375 72.6484375 C10.19144503 71.22537551 10.05851355 69.8006519 9.9375 68.375 C9.86080078 67.59592285 9.78410156 66.8168457 9.70507812 66.01416016 C9.04845464 59.14230175 8.53777451 52.2569549 8 45.375 C6.73498899 26.12840898 6.73498899 26.12840898 1.90234375 7.55078125 C1.01517961 5.04291033 0.45738285 2.61698437 0 0 Z " fill="#F1AB40" transform="translate(338,117)"/>
<path d="M0 0 C12.71455923 0.04918592 20.81362939 5.47003 30.00390625 13.8515625 C31.85808486 15.84725377 32.95562604 17.50479302 34 20 C33.59910156 19.60167969 33.19820313 19.20335937 32.78515625 18.79296875 C28.22752739 14.54538267 24.00739397 12.55293177 18 11 C18 10.01 18 9.02 18 8 C16.68 8 15.36 8 14 8 C14 8.99 14 9.98 14 11 C14.66 11 15.32 11 16 11 C16 11.99 16 12.98 16 14 C16.66 14 17.32 14 18 14 C21.11450382 18.15267176 21.11450382 18.15267176 20.6875 21.3125 C20.460625 21.869375 20.23375 22.42625 20 23 C17 17.25 17 17.25 17 15 C16.01 14.67 15.02 14.34 14 14 C12.421875 12.328125 12.421875 12.328125 10.75 10.25 C7.50598566 6.39730067 4.16230662 3.80318609 0 1 C0 0.67 0 0.34 0 0 Z " fill="#F0A12B" transform="translate(368,169)"/>
<path d="M0 0 C0.84175781 -0.01675781 1.68351562 -0.03351563 2.55078125 -0.05078125 C3.25589844 0.06910156 3.96101563 0.18898438 4.6875 0.3125 C5.3475 1.3025 6.0075 2.2925 6.6875 3.3125 C5.74648437 3.10496094 4.80546875 2.89742188 3.8359375 2.68359375 C-1.22232971 1.97168008 -5.78005252 3.18818407 -10.6875 4.375 C-11.64543457 4.59889404 -12.60336914 4.82278809 -13.59033203 5.0534668 C-22.3992285 7.18658576 -30.86430113 10.05198823 -39.3125 13.3125 C-33.03612798 23.20338984 -24.07592133 29.10091553 -14.3125 35.3125 C-17.3125 36.3125 -17.3125 36.3125 -19.80859375 35.08203125 C-25.68815909 31.17012921 -30.96043296 27.06351542 -36 22.125 C-36.5168335 21.62653564 -37.03366699 21.12807129 -37.56616211 20.61450195 C-40.47781557 17.65367346 -41.98377829 15.49414593 -42.3125 11.3125 C-41.6525 11.3125 -40.9925 11.3125 -40.3125 11.3125 C-40.3125 10.6525 -40.3125 9.9925 -40.3125 9.3125 C-39.69761719 9.19132812 -39.08273438 9.07015625 -38.44921875 8.9453125 C-37.64097656 8.77773438 -36.83273438 8.61015625 -36 8.4375 C-35.19949219 8.27507812 -34.39898437 8.11265625 -33.57421875 7.9453125 C-31.05948882 7.36771001 -31.05948882 7.36771001 -28.3125 5.3125 C-25.72407781 4.74236295 -23.17331904 4.24604842 -20.5625 3.8125 C-16.50406492 3.12347464 -12.58748727 2.39269247 -8.62890625 1.23828125 C-5.60108496 0.39305905 -3.12604552 0.01458497 0 0 Z " fill="#DFE2E6" transform="translate(228.3125,271.6875)"/>
<path d="M0 0 C0.33 0 0.66 0 1 0 C1.44997637 52.57108532 1.44997637 52.57108532 -3 72 C-3.33 72 -3.66 72 -4 72 C-4.65007933 48.01929568 -2.24204269 23.85151798 0 0 Z " fill="#F0A330" transform="translate(115,153)"/>
<path d="M0 0 C4.22319727 3.24530681 8.20667766 6.69541121 12.0703125 10.359375 C7.97228604 10.359375 6.04341084 8.20912884 3.0078125 5.734375 C-12.51334465 -6.52952218 -27.88242216 -12.85786912 -47.9296875 -11.640625 C-53.69050948 -10.94305608 -58.03189333 -9.81757257 -62.9296875 -6.640625 C-65.24660204 -5.91896309 -67.57817673 -5.24002971 -69.9296875 -4.640625 C-54.14398868 -24.73151441 -16.15206528 -11.59835049 0 0 Z " fill="#FCE3B2" transform="translate(259.9296875,35.640625)"/>
<path d="M0 0 C3.73487777 0.4979837 5.81237635 0.87491756 9 3 C9 3.66 9 4.32 9 5 C9.99386719 5.27650391 9.99386719 5.27650391 11.0078125 5.55859375 C15.33717795 7.64414969 18.42331793 10.76012324 21.875 14.0625 C22.94137695 15.07425293 22.94137695 15.07425293 24.02929688 16.10644531 C34.08055826 25.77325753 34.08055826 25.77325753 37 31 C37 31.99 37 32.98 37 34 C37.99 34.33 38.98 34.66 40 35 C42.25 37.8125 42.25 37.8125 44 41 C43.609375 43.19921875 43.609375 43.19921875 43 45 C42.29875 43.94941406 41.5975 42.89882812 40.875 41.81640625 C36.07201885 34.68874487 31.34727831 27.81340714 25.36328125 21.6015625 C24 20 24 20 24 18 C23.41347656 17.731875 22.82695312 17.46375 22.22265625 17.1875 C19.98508723 15.99203255 18.32301441 14.68726121 16.4375 13 C14.33004803 11.12253722 12.36667471 9.57778314 10 8 C10 7.34 10 6.68 10 6 C9.278125 5.7525 8.55625 5.505 7.8125 5.25 C4.75286734 3.89016326 2.5326262 2.17082246 0 0 Z " fill="#FCE5B9" transform="translate(245,43)"/>
<path d="M0 0 C0.9178125 0.00451172 1.835625 0.00902344 2.78125 0.01367188 C5.02090391 0.02533674 7.26041545 0.04170386 9.5 0.0625 C9.5 0.3925 9.5 0.7225 9.5 1.0625 C8.36123413 1.15954224 8.36123413 1.15954224 7.19946289 1.25854492 C-12.37192548 2.98364649 -29.36268105 5.25112809 -46.7421875 14.70703125 C-49.5 16.0625 -49.5 16.0625 -52.5 16.0625 C-45.36411357 9.84737311 -37.45241873 6.37833762 -28.4375 3.8125 C-27.59123047 3.55726563 -26.74496094 3.30203125 -25.87304688 3.0390625 C-17.14218479 0.48106127 -9.07080775 -0.08569804 0 0 Z " fill="#FCE4B1" transform="translate(258.5,152.9375)"/>
<path d="M0 0 C1 2 1 2 0.56420898 3.62280273 C-0.25632325 7.07997383 -0.08156807 10.50510317 -0.02734375 14.03515625 C-0.01297227 15.6576288 0.00084167 17.28010636 0.01416016 18.90258789 C0.02247864 19.74677277 0.03079712 20.59095764 0.03936768 21.46072388 C0.25191968 45.3672163 0.25191968 45.3672163 -0.875 55.5625 C-0.95355225 56.27865479 -1.03210449 56.99480957 -1.11303711 57.73266602 C-1.5910572 61.4167728 -2.45645927 64.6210726 -4 68 C-4.33 68 -4.66 68 -5 68 C-4.85941524 65.54126232 -4.71277001 63.08314825 -4.5625 60.625 C-4.52318359 59.92632812 -4.48386719 59.22765625 -4.44335938 58.5078125 C-4.11328125 53.2265625 -4.11328125 53.2265625 -3 51 C-2.89204793 49.51010897 -2.8437756 48.0156686 -2.82641602 46.52197266 C-2.81292618 45.59405914 -2.79943634 44.66614563 -2.78553772 43.71011353 C-2.77509933 42.70491669 -2.76466095 41.69971985 -2.75390625 40.6640625 C-2.72096894 38.54687085 -2.68775727 36.42968345 -2.65429688 34.3125 C-2.60685978 30.96585003 -2.5624322 27.61921746 -2.52319336 24.27246094 C-2.48350172 21.04864397 -2.4319496 17.82518352 -2.37890625 14.6015625 C-2.3704921 13.60041412 -2.36207794 12.59926575 -2.35340881 11.56777954 C-2.33676682 10.63356171 -2.32012482 9.69934387 -2.30297852 8.73681641 C-2.29267105 7.91678131 -2.28236359 7.09674622 -2.27174377 6.25186157 C-1.97456868 3.78925804 -1.2303605 2.13693689 0 0 Z " fill="#EC991D" transform="translate(195,52)"/>
<path d="M0 0 C0.495 0.99 0.495 0.99 1 2 C0.15722808 3.2163082 -0.70006937 4.42255102 -1.5625 5.625 C-2.27599609 6.63433594 -2.27599609 6.63433594 -3.00390625 7.6640625 C-8.03527293 13.55204151 -13.05028167 16.96794064 -20.4375 19.25 C-21.21448242 19.49959473 -21.99146484 19.74918945 -22.79199219 20.00634766 C-32.32605324 22.9207148 -42.02567296 24.15298048 -52 24 C-52 23.67 -52 23.34 -52 23 C-50.35 23 -48.7 23 -47 23 C-47 22.34 -47 21.68 -47 21 C-43.51768745 19.83922915 -40.54305165 19.78061431 -36.875 19.625 C-28.14251246 19.13725073 -21.39910622 16.94026626 -13.7265625 12.8671875 C-12 12 -12 12 -9 11 C-9 10.34 -9 9.68 -9 9 C-8.21625 8.7525 -7.4325 8.505 -6.625 8.25 C-3.5988084 6.80895638 -3.19298128 6.02833711 -2 3 C-1.34 2.01 -0.68 1.02 0 0 Z " fill="#FBD9A0" transform="translate(287,211)"/>
<path d="M0 0 C0.33 0 0.66 0 1 0 C2.807256 8.71144977 3.34359231 17.22019789 3.31567383 26.08276367 C3.31248769 28.19566316 3.33616785 30.30719147 3.36132812 32.41992188 C3.39438628 39.86259014 2.91151273 46.09379963 0 53 C-6.8359375 53.1953125 -6.8359375 53.1953125 -9 53 C-9.66 52.34 -10.32 51.68 -11 51 C-7.7 51.33 -4.4 51.66 -1 52 C-0.08885716 45.82062297 0.13262362 39.83452139 0.09765625 33.59375 C0.09553383 32.14579041 0.09553383 32.14579041 0.09336853 30.6685791 C0.0878108 27.61235335 0.0752663 24.55620327 0.0625 21.5 C0.05747953 19.41666773 0.05291758 17.3333343 0.04882812 15.25 C0.03785524 10.16663791 0.02062011 5.08333174 0 0 Z " fill="#EFA02A" transform="translate(176,60)"/>
<path d="M0 0 C17.96326865 -0.61549271 32.02920525 3.70747195 48 12 C48 12.66 48 13.32 48 14 C48.66 14 49.32 14 50 14 C51.71230248 15.61974559 53.37163262 17.2958946 55 19 C56.3921875 20.3921875 56.3921875 20.3921875 57.8125 21.8125 C58.534375 22.534375 59.25625 23.25625 60 24 C59.67 24.66 59.34 25.32 59 26 C58.61070312 25.57589844 58.22140625 25.15179688 57.8203125 24.71484375 C50.66799642 17.21644786 42.6665807 11.72163357 33 8 C32.1234375 7.65066406 31.246875 7.30132812 30.34375 6.94140625 C20.32731847 3.1008363 10.67191896 1.69679196 0 1 C0 0.67 0 0.34 0 0 Z " fill="#FEEFCB" transform="translate(260,154)"/>
<path d="M0 0 C0.66 0.33 1.32 0.66 2 1 C1.54109375 1.4125 1.0821875 1.825 0.609375 2.25 C-8.5998573 10.91751276 -11.84527312 21.66671884 -12.24072266 34.18066406 C-12.33058697 40.05889996 -12.26273187 45.93447822 -12.1875 51.8125 C-12.17242171 53.87303706 -12.15873889 55.93358483 -12.14648438 57.99414062 C-12.11373774 62.99636245 -12.06212996 67.99806038 -12 73 C-12.33 73 -12.66 73 -13 73 C-13.03758423 71.9941687 -13.03758423 71.9941687 -13.07592773 70.96801758 C-13.19230801 67.9160041 -13.31484348 64.86426742 -13.4375 61.8125 C-13.47681641 60.75740234 -13.51613281 59.70230469 -13.55664062 58.61523438 C-13.59853516 57.59365234 -13.64042969 56.57207031 -13.68359375 55.51953125 C-13.72025146 54.58214111 -13.75690918 53.64475098 -13.79467773 52.67895508 C-13.94480404 50.00333356 -13.94480404 50.00333356 -14.51855469 47.43041992 C-16.84902055 35.66582173 -14.67250919 19.77916409 -8.54296875 9.57421875 C-6.01762142 6.0770922 -3.17221048 2.92819429 0 0 Z " fill="#FCDAA4" transform="translate(189,31)"/>
<path d="M0 0 C1 2 1 2 0.453125 4.7265625 C-1.40635827 8.91539848 -3.89278462 11.33322767 -7.25 14.375 C-7.81074219 14.92027344 -8.37148438 15.46554688 -8.94921875 16.02734375 C-11.91388147 18.75921541 -13.30026415 19.92810933 -17.421875 20.3515625 C-18.27265625 20.23554688 -19.1234375 20.11953125 -20 20 C-20 20.66 -20 21.32 -20 22 C-21.134375 22.12375 -22.26875 22.2475 -23.4375 22.375 C-25.2009375 22.684375 -25.2009375 22.684375 -27 23 C-27.33 23.66 -27.66 24.32 -28 25 C-29 24 -29 24 -29.09765625 21.93359375 C-29.08605469 21.10988281 -29.07445312 20.28617188 -29.0625 19.4375 C-29.05347656 18.61121094 -29.04445313 17.78492188 -29.03515625 16.93359375 C-29.02355469 16.29550781 -29.01195312 15.65742188 -29 15 C-28.67 15 -28.34 15 -28 15 C-27.67 16.98 -27.34 18.96 -27 21 C-18.48541626 19.83341113 -8.93148646 12.13011038 -3.71875 5.328125 C-2.77369056 3.91053583 -1.88154292 2.45793637 -1 1 C-0.67 0.67 -0.34 0.34 0 0 Z " fill="#EEA12A" transform="translate(389,223)"/>
<path d="M0 0 C-10.20911565 3.55334944 -20.32995812 5.48027889 -31 7 C-31.73814941 7.10586426 -32.47629883 7.21172852 -33.23681641 7.32080078 C-40.52425192 8.34653618 -47.63354922 9.10569962 -55 9 C-55 8.67 -55 8.34 -55 8 C-54.35788574 7.89977539 -53.71577148 7.79955078 -53.05419922 7.69628906 C-41.2450745 5.84659132 -29.44787483 3.95292409 -17.6875 1.8125 C-16.7701709 1.64588867 -15.8528418 1.47927734 -14.90771484 1.30761719 C-10.36105696 0.49007303 -10.36105696 0.49007303 -5.87036133 -0.5793457 C-3.61700831 -1.08613689 -2.1746596 -0.69899773 0 0 Z " fill="#FEE4B3" transform="translate(279,252)"/>
<path d="M0 0 C0.66 0 1.32 0 2 0 C0.90169607 2.78800228 -0.23890096 5.49659869 -1.5390625 8.19921875 C-4.53797901 15.2255411 -4.41672625 24.08511313 -1.828125 31.23828125 C-0.36368619 33.96711954 1.20909826 36.47512214 3 39 C3.74830078 40.10214844 3.74830078 40.10214844 4.51171875 41.2265625 C5.63665753 42.84466929 6.81198179 44.42762295 8 46 C1.86010386 43.24763276 -1.63385093 38.34886018 -4.375 32.3125 C-7.96543263 22.35583808 -6.24801207 13.42624576 -2 4 C-1.34420988 2.66128362 -0.68135804 1.32588591 0 0 Z " fill="#D0D4DC" transform="translate(33,312)"/>
<path d="M0 0 C7.79819203 -0.487387 13.61774262 0.53377066 20 5.1875 C20.66 5.785625 21.32 6.38375 22 7 C21.67 7.66 21.34 8.32 21 9 C20.2575 8.38125 19.515 7.7625 18.75 7.125 C14.71663541 4.00830918 11.84318193 2.77709331 6.75 2.375 C5.85796875 2.30023438 4.9659375 2.22546875 4.046875 2.1484375 C3.03367187 2.07496094 3.03367187 2.07496094 2 2 C2.16371094 3.24652344 2.32742188 4.49304688 2.49609375 5.77734375 C3.11856191 11.3795572 3.11094198 16.93205157 3.0625 22.5625 C3.05798828 23.57119141 3.05347656 24.57988281 3.04882812 25.61914062 C3.03716769 28.07949147 3.02080378 30.53971239 3 33 C2.34 33 1.68 33 1 33 C1.02320313 32.00742188 1.04640625 31.01484375 1.0703125 29.9921875 C1.20050633 21.71206504 0.77935367 13.96900877 -0.66015625 5.79296875 C-1 3 -1 3 0 0 Z " fill="#FCE4B7" transform="translate(316,108)"/>
<path d="M0 0 C-0.33 0.66 -0.66 1.32 -1 2 C-2.984375 2.4921875 -2.984375 2.4921875 -5.75 2.875 C-11.69170685 3.77762771 -17.59520042 4.81761519 -23.5 5.9375 C-24.40886963 6.10975098 -25.31773926 6.28200195 -26.25415039 6.45947266 C-32.2031745 7.60618185 -38.06605555 8.91046988 -43.91796875 10.484375 C-46 11 -46 11 -48 11 C-47.67 10.01 -47.34 9.02 -47 8 C-45.07666016 7.24804688 -45.07666016 7.24804688 -42.5390625 6.71875 C-41.6011084 6.51789795 -40.6631543 6.3170459 -39.69677734 6.11010742 C-38.68309082 5.90877197 -37.6694043 5.70743652 -36.625 5.5 C-35.59455566 5.28641846 -34.56411133 5.07283691 -33.50244141 4.8527832 C-8.14436636 -0.30581613 -8.14436636 -0.30581613 0 0 Z " fill="#D2D5DD" transform="translate(154,266)"/>
<path d="M0 0 C-2.23982187 2.61261384 -3.6356107 3.40530603 -7.05078125 3.73046875 C-8.29529053 3.85180176 -8.29529053 3.85180176 -9.56494141 3.97558594 C-10.92498291 4.0804834 -10.92498291 4.0804834 -12.3125 4.1875 C-13.73054932 4.30593262 -13.73054932 4.30593262 -15.17724609 4.42675781 C-23.82008795 5.06533017 -32.46278971 5.21397133 -41.125 5.25 C-43.0901355 5.26389771 -43.0901355 5.26389771 -45.0949707 5.27807617 C-46.3243335 5.27396729 -47.55369629 5.2698584 -48.8203125 5.265625 C-49.91617676 5.26336914 -51.01204102 5.26111328 -52.14111328 5.25878906 C-54.95353192 5.00420633 -56.61143745 4.4555416 -59 3 C-58.18136475 3.01571045 -57.36272949 3.0314209 -56.51928711 3.04760742 C-39.75021081 3.32547018 -23.67925589 2.92014502 -7.06933594 0.28125 C-4.69625229 -0.04128331 -2.39187319 -0.11909742 0 0 Z " fill="#DFE3EA" transform="translate(325,319)"/>
<path d="M0 0 C0.33 0 0.66 0 1 0 C1.03738281 1.11117188 1.07476562 2.22234375 1.11328125 3.3671875 C1.64898291 16.48228564 3.08497732 29.01775844 12.83984375 38.85546875 C13.99837823 39.84744859 15.17832748 40.81549358 16.38671875 41.74609375 C18.06594868 43.05125793 19.52450969 44.47101759 21 46 C13.89424664 44.57884933 9.39131321 39.51770004 5.44921875 33.71875 C0.84147721 25.78092977 -0.29456335 18.62109571 -0.125 9.5625 C-0.11597656 8.64017578 -0.10695313 7.71785156 -0.09765625 6.76757812 C-0.0742766 4.51144191 -0.04150916 2.25586316 0 0 Z " fill="#D2D6DD" transform="translate(92,346)"/>
<path d="M0 0 C0.99 0.33 1.98 0.66 3 1 C2.54109375 1.31710938 2.0821875 1.63421875 1.609375 1.9609375 C-3.88927553 6.14268433 -6.44509999 10.26698956 -8 17 C-8.63284907 23.68439645 -8.37811832 30.42175281 -8.25 37.125 C-8.22990356 38.95831382 -8.21165835 40.79164891 -8.1953125 42.625 C-8.15156736 47.08386523 -8.08271439 51.54169438 -8 56 C-8.33 56 -8.66 56 -9 56 C-9.32507138 48.12220626 -9.61452752 40.24394617 -9.87548828 32.36376953 C-9.97884938 29.57139856 -10.11678666 26.78555262 -10.27734375 23.99609375 C-10.66837449 15.62087357 -9.72746288 9.44996393 -4 3 C-1.984375 1.17578125 -1.984375 1.17578125 0 0 Z " fill="#FEF0CC" transform="translate(205,41)"/>
<path d="M0 0 C6.6 0.6 6.6 0.6 9 3 C6.69 3 4.38 3 2 3 C2.845625 3.515625 3.69125 4.03125 4.5625 4.5625 C11.96618859 9.49829239 18.59802085 16.76362942 22 25 C21.67 25.99 21.34 26.98 21 28 C20.6596875 27.38253906 20.319375 26.76507813 19.96875 26.12890625 C15.03859009 17.51423853 10.10726743 10.33679401 1 6 C-0.375 3.3125 -0.375 3.3125 -1 1 C-0.67 0.67 -0.34 0.34 0 0 Z " fill="#FDEAC0" transform="translate(367,167)"/>
<path d="M0 0 C1.07314453 0.00322266 2.14628906 0.00644531 3.25195312 0.00976562 C4.37150391 0.01814453 5.49105469 0.02652344 6.64453125 0.03515625 C8.34125977 0.04192383 8.34125977 0.04192383 10.07226562 0.04882812 C12.86724052 0.06062127 15.66210945 0.07707975 18.45703125 0.09765625 C15.24194049 1.96509565 12.60527602 2.45122656 8.9140625 2.73046875 C7.83962891 2.81425781 6.76519531 2.89804688 5.65820312 2.984375 C4.53994141 3.06300781 3.42167969 3.14164063 2.26953125 3.22265625 C1.17060547 3.30902344 0.07167969 3.39539063 -1.06054688 3.484375 C-7.24010433 3.94867091 -13.34673463 4.18925844 -19.54296875 4.09765625 C-19.54296875 3.76765625 -19.54296875 3.43765625 -19.54296875 3.09765625 C-18.78371094 2.96488281 -18.02445312 2.83210937 -17.2421875 2.6953125 C-16.24832031 2.51871094 -15.25445312 2.34210938 -14.23046875 2.16015625 C-13.24433594 1.98613281 -12.25820312 1.81210938 -11.2421875 1.6328125 C-2.92846378 -0.01549452 -2.92846378 -0.01549452 0 0 Z " fill="#F6C67D" transform="translate(141.54296875,238.90234375)"/>
<path d="M0 0 C0.93423645 3.01031744 1.04449911 3.86650268 0 7 C-0.34128172 9.68723505 -0.65175257 12.36943234 -0.9375 15.0625 C-1.64699718 21.4540793 -2.55116113 27.72683596 -4 34 C-4.33 34 -4.66 34 -5 34 C-5.20166126 24.44349683 -5.26439611 15.36085176 -3 6 C-2.34 6 -1.68 6 -1 6 C-0.67 4.02 -0.34 2.04 0 0 Z " fill="#F7C87E" transform="translate(119,126)"/>
<path d="M0 0 C0.33 0 0.66 0 1 0 C1 6.27 1 12.54 1 19 C7.6 19 14.2 19 21 19 C21 19.33 21 19.66 21 20 C18.4385681 20.3641989 15.87641581 20.71662798 13.3125 21.0625 C12.59126953 21.16626953 11.87003906 21.27003906 11.12695312 21.37695312 C7.21489045 21.89498882 3.82480244 22.27980961 0 21 C-1.3974093 18.20518141 -1.13211589 15.86675981 -1.125 12.75 C-1.12757813 11.63109375 -1.13015625 10.5121875 -1.1328125 9.359375 C-1.00608539 6.15392456 -0.6008965 3.14755311 0 0 Z " fill="#F7D59A" transform="translate(213,216)"/>
<path d="M0 0 C0.33 0 0.66 0 1 0 C1.10064005 6.28371307 0.75941669 12.32809949 0 18.5625 C-0.09539062 19.38041016 -0.19078125 20.19832031 -0.2890625 21.04101562 C-0.52144509 23.02788675 -0.76005516 25.01402794 -1 27 C2.96 27 6.92 27 11 27 C11 27.33 11 27.66 11 28 C8.85529407 28.36093104 6.70919203 28.71357589 4.5625 29.0625 C2.77005859 29.35833984 2.77005859 29.35833984 0.94140625 29.66015625 C-0.02925781 29.77230469 -0.99992187 29.88445312 -2 30 C-2.33 29.67 -2.66 29.34 -3 29 C-2.9338013 26.52657594 -2.80602594 24.09064036 -2.625 21.625 C-2.57537109 20.90489746 -2.52574219 20.18479492 -2.47460938 19.44287109 C-2.32345505 17.29466205 -2.16338232 15.14731048 -2 13 C-1.91492188 11.865625 -1.82984375 10.73125 -1.7421875 9.5625 C-1.14211783 2.28423567 -1.14211783 2.28423567 0 0 Z " fill="#FADCA8" transform="translate(110,216)"/>
<path d="M0 0 C0.969375 0.763125 1.93875 1.52625 2.9375 2.3125 C-0.0625 2.3125 -0.0625 2.3125 -2.3125 0.9375 C-8.42613983 -2.67510536 -14.26266947 -2.98409766 -21.1875 -2.875 C-22.36505859 -2.8740332 -22.36505859 -2.8740332 -23.56640625 -2.87304688 C-27.52360428 -2.84301755 -31.20058991 -2.65685494 -35.0625 -1.6875 C-34.0625 -3.6875 -34.0625 -3.6875 -31.375 -4.8125 C-20.54916323 -7.60266412 -9.16363821 -6.4254993 0 0 Z " fill="#ECA337" transform="translate(279.0625,182.6875)"/>
<path d="M0 0 C0 0.33 0 0.66 0 1 C-0.79059814 0.99476318 -1.58119629 0.98952637 -2.39575195 0.98413086 C-6.03465964 0.96313358 -9.6735545 0.95026823 -13.3125 0.9375 C-14.55580078 0.92912109 -15.79910156 0.92074219 -17.08007812 0.91210938 C-24.44861031 0.8927694 -31.67757176 1.16096191 -39 2 C-39 1.34 -39 0.68 -39 0 C-26.56431312 -3.49948978 -12.4747931 -3.077482 0 0 Z " fill="#ED9E29" transform="translate(276,153)"/>
<path d="M0 0 C0.33 0 0.66 0 1 0 C1.84433409 5.48817158 -0.1486752 8.46611049 -3.2265625 12.7578125 C-7.74405352 18.469354 -12.35096604 22.92174354 -19 26 C-21.9375 26.25 -21.9375 26.25 -24 26 C-23.45085937 25.74347656 -22.90171875 25.48695313 -22.3359375 25.22265625 C-11.12382116 19.35410706 -4.47107506 11.67447376 0 0 Z " fill="#C8CED6" transform="translate(388,351)"/>
<path d="M0 0 C4.17443363 3.50074982 8.3145494 6.97950843 12 11 C12 11.66 12 12.32 12 13 C4.35417418 12.61770871 -2.23604403 10.65105892 -9 7 C-9.66 6.01 -10.32 5.02 -11 4 C-8.47826902 5.00147456 -5.96457941 6.01495415 -3.46484375 7.0703125 C-2.63082031 7.41835938 -1.79679687 7.76640625 -0.9375 8.125 C-0.10089844 8.47820312 0.73570313 8.83140625 1.59765625 9.1953125 C4.20989139 10.21174338 4.20989139 10.21174338 8 10 C7.236875 9.4225 6.47375 8.845 5.6875 8.25 C3.32327468 6.27064857 1.63926088 4.58830665 0 2 C0 1.34 0 0.68 0 0 Z " fill="#E1E4E9" transform="translate(52,354)"/>
<path d="M0 0 C3.87044798 3.24325385 5.29038333 6.71725354 6.6875 11.4375 C6.90172607 12.13746094 7.11595215 12.83742187 7.33666992 13.55859375 C9.19542677 19.97882858 9.8741492 26.31846682 10 33 C9.67 33 9.34 33 9 33 C8.75765625 31.98421875 8.5153125 30.9684375 8.265625 29.921875 C6.42868226 22.33836151 4.44588847 14.91331931 1.83203125 7.55078125 C1.01515379 5.04645739 0.46217661 2.59099011 0 0 Z " fill="#FCE2B1" transform="translate(338,117)"/>
<path d="M0 0 C0.76892578 -0.00386719 1.53785156 -0.00773437 2.33007812 -0.01171875 C7.36694806 -0.0032177 12.20159716 0.40866732 17.1875 1.125 C17.1875 1.455 17.1875 1.785 17.1875 2.125 C16.22094482 2.10928955 16.22094482 2.10928955 15.23486328 2.09326172 C12.26078331 2.05119326 9.28676628 2.02551454 6.3125 2 C5.29929688 1.98324219 4.28609375 1.96648438 3.2421875 1.94921875 C-5.44852466 1.89350906 -13.3848196 2.30704514 -20.8125 7.125 C-23.12941454 7.84666191 -25.46098923 8.52559529 -27.8125 9.125 C-21.32072077 0.86273553 -9.72271081 -0.04817198 0 0 Z " fill="#FEECC0" transform="translate(217.8125,21.875)"/>
<path d="M0 0 C3.42686625 5.14029937 3.96851474 10.98445108 4.4375 17.0625 C4.72105204 20.43886967 5.31195346 23.22525894 6.5625 26.375 C8 30 8 30 8 34 C7.01 33.67 6.02 33.34 5 33 C4.88406494 32.34402832 4.76812988 31.68805664 4.64868164 31.01220703 C4.12316081 28.04922551 3.59289082 25.08711346 3.0625 22.125 C2.88009766 21.09246094 2.69769531 20.05992187 2.50976562 18.99609375 C2.33251953 18.00996094 2.15527344 17.02382812 1.97265625 16.0078125 C1.81031494 15.09660645 1.64797363 14.18540039 1.48071289 13.24658203 C1.09326213 10.97805304 1.09326213 10.97805304 0 9 C-0.06950541 7.45976004 -0.08452357 5.91665012 -0.0625 4.375 C-0.05347656 3.55773437 -0.04445313 2.74046875 -0.03515625 1.8984375 C-0.02355469 1.27195313 -0.01195312 0.64546875 0 0 Z " fill="#F1A32F" transform="translate(352,200)"/>
<path d="M0 0 C0.99 0.33 1.98 0.66 3 1 C2.79503906 2.08796875 2.59007812 3.1759375 2.37890625 4.296875 C0.79621625 12.86920889 -0.44844924 21.28549801 -1 30 C-4.3 30 -7.6 30 -11 30 C-11 29.67 -11 29.34 -11 29 C-8.03 29 -5.06 29 -2 29 C-2.00523682 28.36908447 -2.01047363 27.73816895 -2.01586914 27.08813477 C-2.03657826 24.24626653 -2.04964066 21.40441412 -2.0625 18.5625 C-2.07087891 17.56927734 -2.07925781 16.57605469 -2.08789062 15.55273438 C-2.09111328 14.60849609 -2.09433594 13.66425781 -2.09765625 12.69140625 C-2.10289307 11.81685791 -2.10812988 10.94230957 -2.11352539 10.04125977 C-2 8 -2 8 -1 7 C-0.63239269 4.67182036 -0.29758419 2.3381615 0 0 Z " fill="#F0AD44" transform="translate(171,209)"/>
<path d="M0 0 C2.82780799 1.413904 3.02438153 2.93186469 4.125 5.875 C5.99821611 11.66938863 6.37385467 17.03006928 6.375 23.0625 C6.3764502 23.89571777 6.37790039 24.72893555 6.37939453 25.58740234 C6.26994025 31.59508963 6.26994025 31.59508963 4 35 C4.04125 33.700625 4.0825 32.40125 4.125 31.0625 C4.125 26.036971 3.68623708 21.11276823 3.125 16.125 C3.04652832 15.38773682 2.96805664 14.65047363 2.88720703 13.89086914 C2.44277386 10.16436954 1.7575073 7.29348007 0 4 C0 2.68 0 1.36 0 0 Z " fill="#F1A93F" transform="translate(404,195)"/>
<path d="M0 0 C-0.58265625 0.23074219 -1.1653125 0.46148437 -1.765625 0.69921875 C-2.58546875 1.02535156 -3.4053125 1.35148437 -4.25 1.6875 C-5.62671875 2.22890625 -5.62671875 2.22890625 -7.03125 2.78125 C-8.99004346 3.58538626 -10.9292931 4.43911652 -12.84375 5.34375 C-20.57784305 8.91972851 -27.50813159 9.86181871 -36 10 C-36 9.67 -36 9.34 -36 9 C-34.79085938 8.69707031 -33.58171875 8.39414062 -32.3359375 8.08203125 C-23.23622832 5.76421598 -14.43487895 3.26562449 -5.6875 -0.1796875 C-3 -1 -3 -1 0 0 Z " fill="#D5DAE0" transform="translate(361,309)"/>
<path d="M0 0 C-3.55925024 1.95848191 -7.25819306 3.09370151 -11.125 4.3125 C-16.77455333 6.12305159 -21.94923951 8.27310887 -27.14453125 11.1796875 C-27.75683594 11.45039063 -28.36914062 11.72109375 -29 12 C-29.66 11.67 -30.32 11.34 -31 11 C-24.71364536 3.39736894 -9.47098248 -0.47354912 0 0 Z " fill="#C9CDD4" transform="translate(94,317)"/>
<path d="M0 0 C8.0674171 6.10998487 13.60531442 14.54015216 19 23 C18.67 23.66 18.34 24.32 18 25 C14.97849642 22.30222895 13.24329389 19.61273215 11.34375 16.06640625 C8.98769766 12.44329088 5.91418582 9.43781996 2.92578125 6.33203125 C1.07456672 4.09029682 0.38439803 2.83412107 0 0 Z " fill="#FCE6B6" transform="translate(272,47)"/>
<path d="M0 0 C0.33 0 0.66 0 1 0 C1.0582462 3.72910066 1.09367917 7.45808364 1.125 11.1875 C1.14175781 12.24259766 1.15851563 13.29769531 1.17578125 14.38476562 C1.18222656 15.40634766 1.18867188 16.42792969 1.1953125 17.48046875 C1.20578613 18.41785889 1.21625977 19.35524902 1.22705078 20.32104492 C0.97652096 23.27702737 0.3888094 25.37961035 -1 28 C-1.99 28.33 -2.98 28.66 -4 29 C-3.4677101 26.16112055 -2.83607208 23.45698876 -2 20.6875 C-0.26287018 13.98529016 -0.3174795 6.8842923 0 0 Z " fill="#F5A93C" transform="translate(330,196)"/>
<path d="M0 0 C10.69945407 1.5619641 19.03275407 9.24102158 26 17 C25.67 17.66 25.34 18.32 25 19 C24.31035156 18.33613281 23.62070312 17.67226562 22.91015625 16.98828125 C17.89319825 12.27413004 13.14028464 8.15066424 6.94921875 5.02734375 C4.36206346 3.66377293 2.19918381 1.91541816 0 0 Z " fill="#FEE7BC" transform="translate(376,170)"/>
<path d="M0 0 C0.33 0.66 0.66 1.32 1 2 C1.66 2 2.32 2 3 2 C3.67466072 4.87333181 4.3399234 7.74831482 5 10.625 C5.28617187 11.83736328 5.28617187 11.83736328 5.578125 13.07421875 C6.57925543 17.47204169 7.2353082 21.45561039 7 26 C7.66 26.33 8.32 26.66 9 27 C7.68 26.67 6.36 26.34 5 26 C4.89042969 25.0821875 4.78085937 24.164375 4.66796875 23.21875 C3.77981615 16.34459329 2.60832526 10.40225292 0 4 C0 2.68 0 1.36 0 0 Z " fill="#FCD9A2" transform="translate(356,218)"/>
<path d="M0 0 C0 0.66 0 1.32 0 2 C-2.05078125 2.22786458 -4.1015625 2.45572917 -6.15234375 2.68359375 C-8.01140229 2.81886614 -8.01140229 2.81886614 -9 4 C-10.41570123 4.08651611 -11.835595 4.10704904 -13.25390625 4.09765625 C-14.10791016 4.09443359 -14.96191406 4.09121094 -15.84179688 4.08789062 C-16.73962891 4.07951172 -17.63746094 4.07113281 -18.5625 4.0625 C-19.46419922 4.05798828 -20.36589844 4.05347656 -21.29492188 4.04882812 C-23.53001314 4.03700225 -25.76497437 4.0205222 -28 4 C-28 3.67 -28 3.34 -28 3 C-24.08384244 2.49595781 -20.1669977 1.99746767 -16.25 1.5 C-14.58324219 1.28537109 -14.58324219 1.28537109 -12.8828125 1.06640625 C-11.27792969 0.86337891 -11.27792969 0.86337891 -9.640625 0.65625 C-8.65610352 0.53056641 -7.67158203 0.40488281 -6.65722656 0.27539062 C-4 0 -4 0 0 0 Z " fill="#ED9D22" transform="translate(260,257)"/>
<path d="M0 0 C1.34391123 0.64507739 2.67353844 1.3197633 4 2 C4.57878906 2.268125 5.15757812 2.53625 5.75390625 2.8125 C10.72718936 5.30433287 10.72718936 5.30433287 12.25 9.1875 C12.4975 10.115625 12.745 11.04375 13 12 C13.99 12.33 14.98 12.66 16 13 C16 14.98 16 16.96 16 19 C13.74754119 16.31158141 12.11786042 14.35358125 11 11 C10.34 11 9.68 11 9 11 C8.67 10.01 8.34 9.02 8 8 C6.13789757 6.1509581 6.13789757 6.1509581 3.9375 4.375 C2.60931177 3.26856551 1.29234481 2.14809675 0 1 C0 0.67 0 0.34 0 0 Z " fill="#F1A737" transform="translate(313,171)"/>
<path d="M0 0 C0.99 0.33 1.98 0.66 3 1 C-5.85117181 5.05354794 -14.44885971 8.87527599 -24 11 C-21.78142406 7.67213609 -21.12582253 7.4178717 -17.5 6.2109375 C-16.613125 5.90929687 -15.72625 5.60765625 -14.8125 5.296875 C-13.884375 4.99265625 -12.95625 4.6884375 -12 4.375 C-10.16636935 3.75869637 -8.33302184 3.14154952 -6.5 2.5234375 C-5.6853125 2.25450684 -4.870625 1.98557617 -4.03125 1.70849609 C-1.96880481 1.03760838 -1.96880481 1.03760838 0 0 Z " fill="#FDE3B8" transform="translate(364,276)"/>
<path d="M0 0 C3.53983302 3.25123918 5.12833841 7.00834123 7.125 11.3125 C7.48464844 12.05951172 7.84429687 12.80652344 8.21484375 13.57617188 C10.15779272 17.72040198 11.51659938 21.39304561 12 26 C8.15877192 22.0215852 6.75440799 17.84631243 5.015625 12.7265625 C4.10799869 10.28993494 3.09033996 8.21816825 1.75 6 C0 3 0 3 0 0 Z " fill="#FEEDC5" transform="translate(296,80)"/>
<path d="M0 0 C0.99 0.495 0.99 0.495 2 1 C2 1.99 2 2.98 2 4 C2.66 4 3.32 4 4 4 C6.8180436 7.08223518 8.86096307 9.96159635 10 14 C9.625 16.3125 9.625 16.3125 9 18 C9 17.34 9 16.68 9 16 C8.34 16 7.68 16 7 16 C5.82558465 13.89983377 4.66035988 11.79541245 3.5 9.6875 C3.16613281 9.09259766 2.83226562 8.49769531 2.48828125 7.88476562 C0.93174886 5.04171156 0 3.29339012 0 0 Z " fill="#FEEBC3" transform="translate(320,178)"/>
<path d="M0 0 C0.66 0.33 1.32 0.66 2 1 C1.34 1.66 0.68 2.32 0 3 C0.66 3.66 1.32 4.32 2 5 C0.54782324 6.50596108 -0.91192861 8.00462104 -2.375 9.5 C-3.18710938 10.3353125 -3.99921875 11.170625 -4.8359375 12.03125 C-7 14 -7 14 -9 14 C-7.66637334 9.99912001 -5.99801067 7.90716186 -3 5 C-1.95650161 3.36021682 -0.94392019 1.69905634 0 0 Z " fill="#FBDCA7" transform="translate(181,146)"/>
<path d="M0 0 C0 0.66 0 1.32 0 2 C-1.8708878 2.67812114 -3.74694293 3.3419946 -5.625 4 C-6.66914063 4.37125 -7.71328125 4.7425 -8.7890625 5.125 C-12.01774506 6.00483564 -14.67244294 6.15988262 -18 6 C-18 5.34 -18 4.68 -18 4 C-17.38511719 3.87882812 -16.77023438 3.75765625 -16.13671875 3.6328125 C-15.32847656 3.46523438 -14.52023438 3.29765625 -13.6875 3.125 C-12.88699219 2.96257812 -12.08648437 2.80015625 -11.26171875 2.6328125 C-1.59801136 -0.07102273 -1.59801136 -0.07102273 0 0 Z " fill="#C9D0D6" transform="translate(206,277)"/>
<path d="M0 0 C0.66 0 1.32 0 2 0 C0.69392792 3.59169823 -0.98380746 6.79946788 -2.921875 10.08984375 C-4.44694572 12.79187121 -5.7574625 15.5882875 -7.0703125 18.3984375 C-8 20 -8 20 -10 21 C-8.20150479 13.1037496 -5.03830521 6.3859001 0 0 Z " fill="#FCE4BA" transform="translate(184,189)"/>
<path d="M0 0 C0.33 0 0.66 0 1 0 C1.54448399 16.18327402 1.54448399 16.18327402 -3 23 C-2.22095672 7.25512528 -2.22095672 7.25512528 0 0 Z " fill="#ED9F28" transform="translate(193,97)"/>
<path d="M0 0 C0.99386719 0.00902344 1.98773438 0.01804688 3.01171875 0.02734375 C4.15060547 0.04474609 4.15060547 0.04474609 5.3125 0.0625 C5.3125 0.7225 5.3125 1.3825 5.3125 2.0625 C3.27178485 2.40160994 1.22987379 2.73352704 -0.8125 3.0625 C-2.51792969 3.3409375 -2.51792969 3.3409375 -4.2578125 3.625 C-7.44887602 4.03206049 -10.47567791 4.14059902 -13.6875 4.0625 C-13.6875 3.7325 -13.6875 3.4025 -13.6875 3.0625 C-12.0375 3.0625 -10.3875 3.0625 -8.6875 3.0625 C-8.6875 2.4025 -8.6875 1.7425 -8.6875 1.0625 C-5.53819107 0.01273036 -3.29935544 -0.03881595 0 0 Z " fill="#F4C372" transform="translate(248.6875,230.9375)"/>
<path d="M0 0 C-6.62347897 4.41565265 -16.19684541 4.30600606 -24 4 C-20.25381962 1.76594972 -16.23042921 1.09037783 -12 0.3125 C-11.2884375 0.17005859 -10.576875 0.02761719 -9.84375 -0.11914062 C-6.31357087 -0.78104921 -3.41163242 -1.32378445 0 0 Z " fill="#ECA93C" transform="translate(300,113)"/>
<path d="M0 0 C3 3 6 6 9 9 C3.54520815 8.43179252 -0.91059256 7.05362055 -6 5 C-2.90279155 4.12159004 -1.09354597 4.00564594 2 5 C1.34 3.35 0.68 1.7 0 0 Z " fill="#5E6472" transform="translate(52,356)"/>
<path d="M0 0 C1.79275866 3.11910856 2.34290718 5.67682428 2.625 9.25 C2.69976562 10.14203125 2.77453125 11.0340625 2.8515625 11.953125 C2.92503906 12.96632812 2.92503906 12.96632812 3 14 C3.99 13.67 4.98 13.34 6 13 C6 14.65 6 16.3 6 18 C4.68 17.67 3.36 17.34 2 17 C0.4943096 11.19233704 -0.21824777 6.0018137 0 0 Z " fill="#F0A72D" transform="translate(314,132)"/>
<path d="M0 0 C9.82252062 -0.44723112 18.4823267 0.78842446 28 3 C28 3.33 28 3.66 28 4 C22.10965452 4.20953798 17.60426675 3.9054507 12 2 C8.00814224 1.53188266 4.01109879 1.24663714 0 1 C0 0.67 0 0.34 0 0 Z " fill="#EDAE46" transform="translate(212,23)"/>
<path d="M0 0 C0.33 1.32 0.66 2.64 1 4 C0.01 4.33 -0.98 4.66 -2 5 C-2.103125 5.721875 -2.20625 6.44375 -2.3125 7.1875 C-3.07926169 10.32425235 -4.09854016 12.39429577 -6 15 C-8.1875 16.3125 -8.1875 16.3125 -10 17 C-8.23576999 13.24868988 -6.06102752 9.76463789 -3.875 6.25 C-3.50246094 5.64800781 -3.12992188 5.04601562 -2.74609375 4.42578125 C-1.83225276 2.94957657 -0.91633402 1.47465846 0 0 Z " fill="#EEA635" transform="translate(199,128)"/>
<path d="M0 0 C8.79393628 -0.42781312 16.51311539 0.70032804 25 3 C25 3.33 25 3.66 25 4 C19.12123504 4.16032995 13.76611905 3.6092534 8 2.5 C7.22527344 2.35691406 6.45054687 2.21382813 5.65234375 2.06640625 C3.76704421 1.71727671 1.88334061 1.35954684 0 1 C0 0.67 0 0.34 0 0 Z " fill="#ACB1BC" transform="translate(245,320)"/>
<path d="M0 0 C0 0.66 0 1.32 0 2 C-0.99 2 -1.98 2 -3 2 C-3 2.66 -3 3.32 -3 4 C-11.91 4.99 -11.91 4.99 -21 6 C-17.46876996 3.64584664 -14.00115229 2.84510267 -9.9375 1.875 C-9.20466797 1.69324219 -8.47183594 1.51148438 -7.71679688 1.32421875 C-2.29546523 0 -2.29546523 0 0 0 Z " fill="#F2AC45" transform="translate(297,247)"/>
<path d="M0 0 C0.33 0 0.66 0 1 0 C1.33 1.98 1.66 3.96 2 6 C6.51478398 5.46884894 9.34666857 3.63379708 13 1 C13.66 1.33 14.32 1.66 15 2 C13.6875 3.5 13.6875 3.5 12 5 C11.01 5 10.02 5 9 5 C9 5.66 9 6.32 9 7 C7.865625 7.12375 6.73125 7.2475 5.5625 7.375 C3.7990625 7.684375 3.7990625 7.684375 2 8 C1.67 8.66 1.34 9.32 1 10 C0 9 0 9 -0.09765625 6.93359375 C-0.08605469 6.10988281 -0.07445312 5.28617188 -0.0625 4.4375 C-0.05347656 3.61121094 -0.04445313 2.78492188 -0.03515625 1.93359375 C-0.02355469 1.29550781 -0.01195312 0.65742188 0 0 Z " fill="#EEA537" transform="translate(360,238)"/>
<path d="M0 0 C0.66 0.33 1.32 0.66 2 1 C0.6371611 5.08851671 -1.52386972 6.54626098 -5 9 C-7.375 8.8125 -7.375 8.8125 -9 8 C-6.14723863 5.06799526 -3.34920216 2.35684596 0 0 Z " fill="#EE9F2A" transform="translate(237,183)"/>
<path d="M0 0 C7.51827663 -0.69328371 12.02597761 0.32758025 18 5 C17.01 5.495 17.01 5.495 16 6 C15.01 5.67 14.02 5.34 13 5 C13 4.34 13 3.68 13 3 C9.02022924 2.1558062 5.02992782 1.55312735 1 1 C1 3.64 1 6.28 1 9 C0.67 9 0.34 9 0 9 C0 6.03 0 3.06 0 0 Z " fill="#EDA53A" transform="translate(318,110)"/>
<path d="M0 0 C5.41390145 0.68302874 10.63677579 1.77706302 15.9375 3.0625 C17.10635742 3.3419043 17.10635742 3.3419043 18.29882812 3.62695312 C20.19989697 4.08181009 22.10004657 4.5405062 24 5 C24 5.33 24 5.66 24 6 C15.23883957 5.74751699 7.90682799 4.916977 0 1 C0 0.67 0 0.34 0 0 Z " fill="#E0E3E9" transform="translate(231,315)"/>
<path d="M0 0 C1.32 0 2.64 0 4 0 C5.25664978 2.90600261 6 4.79604584 6 8 C6.66 8 7.32 8 8 8 C8 8.66 8 9.32 8 10 C4.20401451 8.50871999 2.28279601 6.34266559 0 3 C0 2.01 0 1.02 0 0 Z " fill="#D19A42" transform="translate(224,261)"/>
<path d="M0 0 C7.50769231 0.61538462 7.50769231 0.61538462 10 2.5625 C10.33 3.036875 10.66 3.51125 11 4 C10.01 4.495 10.01 4.495 9 5 C9 5.99 9 6.98 9 8 C2.57142857 2.71428571 2.57142857 2.71428571 0 0 Z " fill="#EAAF57" transform="translate(368,169)"/>
<path d="M0 0 C-3.53807058 3.12182699 -6.50886473 4.63313274 -11 6 C-11.99 6.66 -12.98 7.32 -14 8 C-11.72632717 1.63371608 -6.41192463 -0.61065949 0 0 Z " fill="#EFA73A" transform="translate(137,112)"/>
<path d="M0 0 C-4.9748792 3.31658613 -11.03568353 4.38479461 -17 4 C-11.21128901 0.14085934 -6.80327576 -0.26679513 0 0 Z " fill="#EE9E29" transform="translate(339,285)"/>
<path d="M0 0 C6.6 0.6 6.6 0.6 9 3 C6.69 3 4.38 3 2 3 C2.99 3.66 3.98 4.32 5 5 C4.67 5.66 4.34 6.32 4 7 C2.0625 6.25 2.0625 6.25 0 5 C-0.8125 2.9375 -0.8125 2.9375 -1 1 C-0.67 0.67 -0.34 0.34 0 0 Z " fill="#FCF0DB" transform="translate(367,167)"/>
<path d="M0 0 C-5.39459439 3.08467498 -9.79011871 4.55643705 -16 5 C-15.67 4.34 -15.34 3.68 -15 3 C-13.02 3 -11.04 3 -9 3 C-9 2.34 -9 1.68 -9 1 C-3.375 -1.125 -3.375 -1.125 0 0 Z " fill="#ED9A1F" transform="translate(275,224)"/>
<path d="M0 0 C1.85646001 2.78469002 2.45157815 4.2681416 3.125 7.4375 C3.29257812 8.19933594 3.46015625 8.96117187 3.6328125 9.74609375 C4 12 4 12 4 16 C3.34 16 2.68 16 2 16 C0.13216954 10.51324804 -0.2358396 5.77807024 0 0 Z " fill="#F2B24F" transform="translate(352,200)"/>
<path d="M0 0 C4.2829452 0.5479083 6.85135641 2.02432804 10.3125 4.5625 C11.19550781 5.20316406 12.07851562 5.84382813 12.98828125 6.50390625 C13.65214844 6.99761719 14.31601563 7.49132812 15 8 C14.01 8.33 13.02 8.66 12 9 C9.08203125 7.3828125 9.08203125 7.3828125 5.8125 5.125 C4.72582031 4.38507813 3.63914063 3.64515625 2.51953125 2.8828125 C1.68808594 2.26148438 0.85664063 1.64015625 0 1 C0 0.67 0 0.34 0 0 Z " fill="#C7CCD4" transform="translate(199,299)"/>
<path d="M0 0 C9.17286652 0.19256018 9.17286652 0.19256018 12.625 3.5625 C13.07875 4.366875 13.5325 5.17125 14 6 C9.50540476 5.29771949 5.09389959 3.99912387 1 2 C0.67 1.34 0.34 0.68 0 0 Z " fill="#EFA93F" transform="translate(246,281)"/>
<path d="M0 0 C0.33 0 0.66 0 1 0 C1.5497272 5.63470383 -0.04952165 8.38987758 -3 13 C-3.99 12.67 -4.98 12.34 -6 12 C-5.65066406 11.46890625 -5.30132812 10.9378125 -4.94140625 10.390625 C-4.48636719 9.68421875 -4.03132813 8.9778125 -3.5625 8.25 C-2.88380859 7.20585937 -2.88380859 7.20585937 -2.19140625 6.140625 C-1.0391991 4.07042986 -0.45323018 2.31303676 0 0 Z " fill="#BEC3CB" transform="translate(388,351)"/>
<path d="M0 0 C-2.04791862 2.04791862 -3.14820414 2.56265691 -5.8125 3.5 C-6.87404297 3.88091797 -6.87404297 3.88091797 -7.95703125 4.26953125 C-8.63121094 4.51058594 -9.30539063 4.75164062 -10 5 C-11.66905395 5.66066719 -13.3369416 6.32438252 -15 7 C-14 4 -14 4 -12.109375 2.83203125 C-4.27810031 -0.55201294 -4.27810031 -0.55201294 0 0 Z " fill="#C9CED5" transform="translate(74,287)"/>
<path d="M0 0 C1.43775857 2.87551714 0.53571789 5.02831146 -0.25390625 8.0234375 C-1.26128955 10.69221211 -2.79457863 12.23566291 -5 14 C-5 8.91112715 -2.31781017 4.45732725 0 0 Z " fill="#F7CC89" transform="translate(407,232)"/>
<path d="M0 0 C0.99 0.33 1.98 0.66 3 1 C3 3.64 3 6.28 3 9 C1.29115995 7.37660195 -0.37446717 5.70680947 -2 4 C-2 3.34 -2 2.68 -2 2 C-1.34 2 -0.68 2 0 2 C0 1.34 0 0.68 0 0 Z " fill="#363F50" transform="translate(36,346)"/>
<path d="M0 0 C-1 1.5 -1 1.5 -3 3 C-5.71846235 3.27345479 -8.25677199 3.13491285 -11 3 C-11 2.34 -11 1.68 -11 1 C-7.27569643 0.30710631 -3.78916254 -0.11144596 0 0 Z " fill="#B9C0CA" transform="translate(325,319)"/>
<path d="M0 0 C1.32 0.33 2.64 0.66 4 1 C0.535 3.97 0.535 3.97 -3 7 C-3 3.48283697 -2.17554415 2.62878252 0 0 Z " fill="#F29C1D" transform="translate(377,236)"/>
<path d="M0 0 C-4.455 3.465 -4.455 3.465 -9 7 C-9.33 6.01 -9.66 5.02 -10 4 C-4.5 -1.125 -4.5 -1.125 0 0 Z " fill="#FDE6B6" transform="translate(206,171)"/>
<path d="M0 0 C0.33 1.32 0.66 2.64 1 4 C0.01 4.66 -0.98 5.32 -2 6 C-3.05104383 7.63495707 -4.05988318 9.29883624 -5 11 C-5 7.61976483 -4.12544378 5.16531063 -3 2 C-2.01 2 -1.02 2 0 2 C0 1.34 0 0.68 0 0 Z " fill="#EEAE4D" transform="translate(182,142)"/>
<path d="M0 0 C-0.66 1.32 -1.32 2.64 -2 4 C-2.99 4 -3.98 4 -5 4 C-5.33 4.99 -5.66 5.98 -6 7 C-6.99 6.67 -7.98 6.34 -9 6 C-8.07213211 4.99105628 -7.13231567 3.99309093 -6.1875 3 C-5.66542969 2.443125 -5.14335937 1.88625 -4.60546875 1.3125 C-3 0 -3 0 0 0 Z " fill="#EDA031" transform="translate(196,29)"/>
<path d="M0 0 C1.98 0 3.96 0 6 0 C6.6875 2.8125 6.6875 2.8125 7 6 C5.5625 7.875 5.5625 7.875 4 9 C4 6.36 4 3.72 4 1 C2.68 0.67 1.36 0.34 0 0 Z " fill="#656E7A" transform="translate(94,315)"/>
<path d="M0 0 C-2.95183101 2.95183101 -5.95511947 3.08663988 -10 4 C-9.67 3.01 -9.34 2.02 -9 1 C-3.79245283 -1.26415094 -3.79245283 -1.26415094 0 0 Z " fill="#F0A32F" transform="translate(362,277)"/>
<path d="M0 0 C0 3.20395416 -0.74335022 5.09399739 -2 8 C-2.66 8 -3.32 8 -4 8 C-4.33 8.66 -4.66 9.32 -5 10 C-4.4454626 6.67277559 -3.75986957 3.8986087 -2 1 C-1.34 0.67 -0.68 0.34 0 0 Z " fill="#FAD9A3" transform="translate(327,218)"/>
<path d="M0 0 C2 1 2 1 3.1875 3.3125 C4.03624754 6.11989571 3.99928333 7.301935 3 10 C3 9.34 3 8.68 3 8 C2.34 8 1.68 8 1 8 C-0.35439668 5.29120665 -0.06501451 2.99066732 0 0 Z " fill="#F7D092" transform="translate(326,186)"/>
<path d="M0 0 C3.02419525 0.58803797 6.01758453 1.22678118 9 2 C9 2.99 9 3.98 9 5 C5.22454612 3.90931332 2.52956528 3.0916909 0 0 Z " fill="#ED9F27" transform="translate(299,161)"/>
<path d="M0 0 C3.92300495 2.35380297 4.83857315 4.64464931 6 9 C3.5625 7.875 3.5625 7.875 1 6 C0.1875 2.8125 0.1875 2.8125 0 0 Z " fill="#EFAD44" transform="translate(398,186)"/>
<path d="M0 0 C2.31 1.98 4.62 3.96 7 6 C6.67 6.99 6.34 7.98 6 9 C4.99406757 7.8803014 3.9954151 6.7540588 3 5.625 C2.443125 4.99851562 1.88625 4.37203125 1.3125 3.7265625 C0 2 0 2 0 0 Z " fill="#D9DDE2" transform="translate(52,354)"/>
<path d="M0 0 C0.99 0.33 1.98 0.66 3 1 C2.34 4.3 1.68 7.6 1 11 C0.67 11 0.34 11 0 11 C0 7.37 0 3.74 0 0 Z " fill="#F2AA3F" transform="translate(171,209)"/>
<path d="M0 0 C0.33 1.32 0.66 2.64 1 4 C-0.65 5.32 -2.3 6.64 -4 8 C-4 4.09161134 -2.49432124 2.88405893 0 0 Z " fill="#ECA02F" transform="translate(227,192)"/>
<path d="M0 0 C5.27272727 2.63636364 5.27272727 2.63636364 7 5 C6.67 6.32 6.34 7.64 6 9 C4.02 6.03 2.04 3.06 0 0 Z " fill="#FEEAC2" transform="translate(273,66)"/>
<path d="M0 0 C1 2 1 2 0.375 4.0625 C-1 6 -1 6 -3.625 6.75 C-4.800625 6.87375 -4.800625 6.87375 -6 7 C-4.02 4.69 -2.04 2.38 0 0 Z " fill="#EEA83E" transform="translate(188,145)"/>
<path d="M0 0 C3.67230705 3.07999946 4.56802365 5.2482602 5 10 C2.08772731 6.71195019 0.50298788 4.40114397 0 0 Z " fill="#FDE1AD" transform="translate(303,96)"/>
<path d="M0 0 C0.33 0 0.66 0 1 0 C1.92470553 4.71599818 2.22923777 7.67265609 0 12 C-0.33 12 -0.66 12 -1 12 C-1.14285714 3.42857143 -1.14285714 3.42857143 0 0 Z " fill="#EE981C" transform="translate(178,52)"/>
<path d="M0 0 C-3.22515763 1.73662334 -6.51329166 2.8905928 -10 4 C-9.67 3.01 -9.34 2.02 -9 1 C-6.04335481 -0.4783226 -3.25770263 -0.06032783 0 0 Z " fill="#EEB351" transform="translate(216,37)"/>
</svg>
